<?xml version="1.0" encoding="UTF-8" standalone="no"?>
<!-- Created with Inkscape (http://www.inkscape.org/) -->

<svg
   xmlns:dc="http://purl.org/dc/elements/1.1/"
   xmlns:cc="http://creativecommons.org/ns#"
   xmlns:rdf="http://www.w3.org/1999/02/22-rdf-syntax-ns#"
   xmlns:svg="http://www.w3.org/2000/svg"
   xmlns="http://www.w3.org/2000/svg"
   xmlns:sodipodi="http://sodipodi.sourceforge.net/DTD/sodipodi-0.dtd"
   xmlns:inkscape="http://www.inkscape.org/namespaces/inkscape"
   width="414.97455mm"
   height="107.05453mm"
   viewBox="0 0 414.97455 107.05453"
   version="1.1"
   id="svg8"
   inkscape:version="0.92.3 (2405546, 2018-03-11)"
   sodipodi:docname="napper.svg">
  <defs
     id="defs2" />
  <sodipodi:namedview
     id="base"
     pagecolor="#ffffff"
     bordercolor="#666666"
     borderopacity="1.0"
     inkscape:pageopacity="0.0"
     inkscape:pageshadow="2"
     inkscape:zoom="0.49497475"
     inkscape:cx="974.7465"
     inkscape:cy="266.05773"
     inkscape:document-units="mm"
     inkscape:current-layer="layer1"
     showgrid="false"
     inkscape:pagecheckerboard="true"
     inkscape:window-width="1920"
     inkscape:window-height="991"
     inkscape:window-x="-9"
     inkscape:window-y="-9"
     inkscape:window-maximized="1"
     fit-margin-top="0"
     fit-margin-left="0"
     fit-margin-right="0"
     fit-margin-bottom="0" />
  <metadata
     id="metadata5">
    <rdf:RDF>
      <cc:Work
         rdf:about="">
        <dc:format>image/svg+xml</dc:format>
        <dc:type
           rdf:resource="http://purl.org/dc/dcmitype/StillImage" />
        <dc:title></dc:title>
      </cc:Work>
    </rdf:RDF>
  </metadata>
  <g
     inkscape:label="Layer 1"
     inkscape:groupmode="layer"
     id="layer1"
     transform="translate(354.65614,-238.77045)">
    <path
       inkscape:connector-curvature="0"
       id="path837"
       style="font-style:normal;font-variant:normal;font-weight:bold;font-stretch:normal;font-size:medium;line-height:1.25;font-family:Poppins;-inkscape-font-specification:'Poppins Bold';letter-spacing:0px;word-spacing:0px;fill:#ffffff;fill-opacity:1;stroke:none;stroke-width:0.26458332"
       d="m -285.20341,316.4071 h -18.91149 l -31.62975,-47.88699 v 47.88699 l -18.91149,-10.58333 v -67.05332 h 18.91149 l 31.62975,48.10818 v -48.10818 l 18.91149,10.58333 z"
       sodipodi:nodetypes="ccccccccccc"
       inkscape:export-filename="C:\Users\Russe\Documents\Gameplai\SleeperWebPack\images\napper.png"
       inkscape:export-xdpi="30.6"
       inkscape:export-ydpi="30.6" />
    <path
       inkscape:connector-curvature="0"
       id="path839"
       style="font-style:normal;font-variant:normal;font-weight:bold;font-stretch:normal;font-size:medium;line-height:1.25;font-family:Poppins;-inkscape-font-specification:'Poppins Bold';letter-spacing:0px;word-spacing:0px;fill:#ffffff;fill-opacity:1;stroke:none;stroke-width:0.26458332"
       d="m -275.25518,285.44092 c 0,-6.34069 1.17966,-11.90723 3.53899,-16.69962 2.43306,-4.79239 5.714,-8.47884 9.84283,-11.05936 4.12882,-2.58051 8.73688,-3.87077 13.82419,-3.87077 4.35001,0 8.14705,0.88475 11.39113,2.65425 3.31781,1.76949 5.86146,4.09196 7.63095,6.96739 v -8.73689 l 18.91149,10.58333 v 51.12785 h -18.91149 v -8.73688 c -1.84323,2.87543 -4.42374,5.19789 -7.74155,6.96739 -3.24407,1.76949 -7.04112,2.65424 -11.39113,2.65424 -5.01357,0 -9.58477,-1.29026 -13.71359,-3.87077 -4.12883,-2.65425 -7.40977,-6.37756 -9.84283,-11.16995 -2.35933,-4.86611 -3.53899,-10.46952 -3.53899,-16.81021 z m 46.22809,0.11059 c 0,-4.71865 -1.32712,-8.44197 -3.98137,-11.16994 -2.58051,-2.72797 -5.75086,-4.09196 -9.51104,-4.09196 -3.76018,0 -6.96739,1.36399 -9.62163,4.09196 -2.58052,2.65424 -3.87078,6.34069 -3.87078,11.05935 0,4.71865 1.29026,8.47883 3.87078,11.28054 2.65424,2.72797 5.86145,4.09196 9.62163,4.09196 3.76018,0 6.93053,-1.36399 9.51104,-4.09196 2.65425,-2.72797 3.98137,-6.45129 3.98137,-11.16995 z"
       sodipodi:nodetypes="scssccccccccsccsscscscscs"
       inkscape:export-filename="C:\Users\Russe\Documents\Gameplai\SleeperWebPack\images\napper.png"
       inkscape:export-xdpi="30.6"
       inkscape:export-ydpi="30.6" />
    <path
       inkscape:connector-curvature="0"
       id="path841"
       style="font-style:normal;font-variant:normal;font-weight:bold;font-stretch:normal;font-size:medium;line-height:1.25;font-family:Poppins;-inkscape-font-specification:'Poppins Bold';letter-spacing:0px;word-spacing:0px;fill:#ffffff;fill-opacity:1;stroke:none;stroke-width:0.26458332"
       d="m -177.41448,263.43281 c 1.84323,-2.87543 4.38688,-5.1979 7.63095,-6.96739 3.24408,-1.7695 7.04113,-2.65425 11.39114,-2.65425 5.0873,0 9.69536,1.29026 13.82419,3.87077 4.12882,2.58052 7.3729,6.26697 9.73223,11.05936 2.43305,4.79239 3.64958,10.35893 3.64958,16.69962 0,6.34069 -1.21653,11.9441 -3.64958,16.81021 -2.35933,4.79239 -5.60341,8.5157 -9.73223,11.16995 -4.12883,2.58051 -8.73689,3.87077 -13.82419,3.87077 -4.27629,0 -8.07333,-0.88475 -11.39114,-2.65424 -3.24407,-1.7695 -5.78772,-4.0551 -7.63095,-6.8568 v 38.04417 h -18.91149 v -91.12906 z m 26.98482,22.00811 c 0,-4.71866 -1.32712,-8.40511 -3.98137,-11.05935 -2.58051,-2.72797 -5.78772,-4.09196 -9.62163,-4.09196 -3.76018,0 -6.96739,1.36399 -9.62164,4.09196 -2.58051,2.72797 -3.87077,6.45129 -3.87077,11.16994 0,4.71866 1.29026,8.44198 3.87077,11.16995 2.65425,2.72797 5.86146,4.09196 9.62164,4.09196 3.76018,0 6.96739,-1.36399 9.62163,-4.09196 2.65425,-2.80171 3.98137,-6.56189 3.98137,-11.28054 z"
       sodipodi:nodetypes="cssccsccscccccccscscscscs"
       inkscape:export-filename="C:\Users\Russe\Documents\Gameplai\SleeperWebPack\images\napper.png"
       inkscape:export-xdpi="30.6"
       inkscape:export-ydpi="30.6" />
    <path
       inkscape:connector-curvature="0"
       id="path843"
       style="font-style:normal;font-variant:normal;font-weight:bold;font-stretch:normal;font-size:medium;line-height:1.25;font-family:Poppins;-inkscape-font-specification:'Poppins Bold';letter-spacing:0px;word-spacing:0px;fill:#ffffff;fill-opacity:1;stroke:none;stroke-width:0.26458332"
       d="m -102.24544,263.43281 c 1.84322,-2.87543 4.386874,-5.1979 7.63095,-6.96739 3.244077,-1.7695 7.041121,-2.65425 11.391133,-2.65425 5.087302,0 9.695365,1.29026 13.82419,3.87077 4.128825,2.58052 7.372901,6.26697 9.73223,11.05936 2.433057,4.79239 3.649586,10.35893 3.649586,16.69962 0,6.34069 -1.216529,11.9441 -3.649586,16.81021 -2.359329,4.79239 -5.603405,8.5157 -9.73223,11.16995 -4.128825,2.58051 -8.736888,3.87077 -13.82419,3.87077 -4.276283,0 -8.073327,-0.88475 -11.391133,-2.65424 -3.244076,-1.7695 -5.78773,-4.0551 -7.63095,-6.8568 v 38.04417 h -18.91149 v -91.12906 z m 26.984817,22.00811 c 0,-4.71866 -1.327122,-8.40511 -3.981367,-11.05935 -2.580515,-2.72797 -5.787727,-4.09196 -9.621636,-4.09196 -3.76018,0 -6.967392,1.36399 -9.621637,4.09196 -2.580517,2.72797 -3.870777,6.45129 -3.870777,11.16994 0,4.71866 1.29026,8.44198 3.870777,11.16995 2.654245,2.72797 5.861457,4.09196 9.621637,4.09196 3.760179,0 6.967391,-1.36399 9.621636,-4.09196 2.654245,-2.80171 3.981367,-6.56189 3.981367,-11.28054 z"
       sodipodi:nodetypes="ccsccsccscccccccscscscscs"
       inkscape:export-filename="C:\Users\Russe\Documents\Gameplai\SleeperWebPack\images\napper.png"
       inkscape:export-xdpi="30.6"
       inkscape:export-ydpi="30.6" />
    <path
       inkscape:connector-curvature="0"
       id="path845"
       style="font-style:normal;font-variant:normal;font-weight:bold;font-stretch:normal;font-size:medium;line-height:1.25;font-family:Poppins;-inkscape-font-specification:'Poppins Bold';letter-spacing:0px;word-spacing:0px;fill:#ffffff;fill-opacity:1;stroke:none;stroke-width:0.26458332"
       d="m 12.184294,284.55617 c 0,1.76949 -0.110593,3.61272 -0.33178,5.52968 h -42.799693 c 0.294916,3.83391 1.511445,6.78307 3.649586,8.84748 2.211871,1.99068 4.90298,2.98602 8.073327,2.98602 4.718657,0 7.999599,-1.99068 9.8428238,-5.97205 L 5.106309,306.89606 c -2.6542445,3.24408 -6.0089146,5.78773 -10.0640104,7.63095 -4.0550957,1.84323 -8.5894296,2.76484 -13.6030026,2.76484 -6.045779,0 -11.427998,-1.29026 -16.146655,-3.87077 -4.718657,-2.58051 -8.405107,-6.26696 -11.059352,-11.05935 -2.654244,-4.79239 -3.981366,-10.39579 -3.981366,-16.81022 0,-6.41442 1.290258,-12.01782 3.870773,-16.81021 2.654245,-4.79239 6.340695,-8.47884 11.059352,-11.05936 4.718657,-2.58051 10.137739,-3.87077 16.257248,-3.87077 5.97205,0 11.2805386,1.25339 15.9254665,3.76018 4.6449279,2.50679 8.2576496,6.08264 10.8381651,10.72757 2.6542444,4.64493 3.9813664,10.06401 3.9813664,16.25725 z m -19.3538658,-4.97671 c 0,-3.24407 -1.1059351,-5.82459 -3.3178052,-7.74154 -2.211871,-1.91696 -4.976709,-2.87544 -8.294515,-2.87544 -3.170347,0 -5.861456,0.92161 -8.073327,2.76484 -2.138141,1.84323 -3.465263,4.46061 -3.981366,7.85214 z"
       sodipodi:nodetypes="scccscccssssccsscsccsccc"
       inkscape:export-filename="C:\Users\Russe\Documents\Gameplai\SleeperWebPack\images\napper.png"
       inkscape:export-xdpi="30.6"
       inkscape:export-ydpi="30.6" />
    <path
       inkscape:connector-curvature="0"
       id="path847"
       style="font-style:normal;font-variant:normal;font-weight:bold;font-stretch:normal;font-size:medium;line-height:1.25;font-family:Poppins;-inkscape-font-specification:'Poppins Bold';letter-spacing:0px;word-spacing:0px;fill:#ffffff;fill-opacity:1;stroke:none;stroke-width:0.26458332"
       d="m 40.964549,264.98112 c 2.211871,-3.39153 4.976709,-6.04578 8.294514,-7.96274 3.317805,-1.99068 7.004256,-2.98602 11.059352,-2.98602 v 20.01743 H 55.12052 c -4.718657,0 -8.25765,1.0322 -10.616978,3.09661 -2.359329,1.99069 -3.538993,5.52968 -3.538993,10.61698 V 316.4071 H 22.053057 v -61.71118 z"
       sodipodi:nodetypes="ccccscsccccc"
       inkscape:export-filename="C:\Users\Russe\Documents\Gameplai\SleeperWebPack\images\napper.png"
       inkscape:export-xdpi="30.6"
       inkscape:export-ydpi="30.6" />
  </g>
</svg>
