<?xml version="1.0" encoding="UTF-8" standalone="no"?>
<!-- Created with Inkscape (http://www.inkscape.org/) -->

<svg
   xmlns:dc="http://purl.org/dc/elements/1.1/"
   xmlns:cc="http://creativecommons.org/ns#"
   xmlns:rdf="http://www.w3.org/1999/02/22-rdf-syntax-ns#"
   xmlns:svg="http://www.w3.org/2000/svg"
   xmlns="http://www.w3.org/2000/svg"
   xmlns:sodipodi="http://sodipodi.sourceforge.net/DTD/sodipodi-0.dtd"
   xmlns:inkscape="http://www.inkscape.org/namespaces/inkscape"
   width="116.369mm"
   height="116.369mm"
   viewBox="0 0 116.36901 116.369"
   version="1.1"
   id="svg1382"
   inkscape:version="0.92.3 (2405546, 2018-03-11)"
   sodipodi:docname="MIL.svg">
  <defs
     id="defs1376" />
  <sodipodi:namedview
     id="base"
     pagecolor="#ffffff"
     bordercolor="#666666"
     borderopacity="1.0"
     inkscape:pageopacity="0.0"
     inkscape:pageshadow="2"
     inkscape:zoom="0.35"
     inkscape:cx="117.13143"
     inkscape:cy="338.70063"
     inkscape:document-units="mm"
     inkscape:current-layer="layer1"
     showgrid="false"
     inkscape:pagecheckerboard="true"
     fit-margin-top="0"
     fit-margin-left="0"
     fit-margin-right="0"
     fit-margin-bottom="0"
     inkscape:window-width="1920"
     inkscape:window-height="991"
     inkscape:window-x="-9"
     inkscape:window-y="-9"
     inkscape:window-maximized="1" />
  <metadata
     id="metadata1379">
    <rdf:RDF>
      <cc:Work
         rdf:about="">
        <dc:format>image/svg+xml</dc:format>
        <dc:type
           rdf:resource="http://purl.org/dc/dcmitype/StillImage" />
        <dc:title></dc:title>
      </cc:Work>
    </rdf:RDF>
  </metadata>
  <g
     inkscape:label="Layer 1"
     inkscape:groupmode="layer"
     id="layer1"
     transform="translate(73.702333,-57.09581)">
    <circle
       style="opacity:1;fill:#eee1c6;fill-opacity:1;stroke:none;stroke-width:10;stroke-linecap:round;stroke-linejoin:round;stroke-miterlimit:4;stroke-dasharray:none;stroke-dashoffset:0;stroke-opacity:1"
       id="path7669-8-8-9-0-1-6-1-9"
       cx="-15.517832"
       cy="115.28031"
       r="58.184502"
       inkscape:export-xdpi="65.480003"
       inkscape:export-ydpi="65.480003" />
    <ellipse
       style="opacity:1;fill:#ffffff;fill-opacity:1;stroke:none;stroke-width:0.27826786;stroke-linecap:round;stroke-linejoin:round;stroke-miterlimit:4;stroke-dasharray:none;stroke-dashoffset:0;stroke-opacity:1"
       id="path10203"
       cx="-15.517832"
       cy="107.31043"
       rx="27.648956"
       ry="35.239193"
       inkscape:export-xdpi="176.78"
       inkscape:export-ydpi="176.78" />
    <path
       style="opacity:1;fill:#00471b;fill-opacity:1;stroke:#000000;stroke-width:0;stroke-linecap:round;stroke-linejoin:round;stroke-miterlimit:4;stroke-dasharray:none;stroke-dashoffset:0;stroke-opacity:1"
       d="m -22.74266,73.335063 a 42.257382,42.257382 0 0 0 -35.0325,41.633127 42.257382,42.257382 0 0 0 42.2574,42.25737 42.257382,42.257382 0 0 0 42.2573,-42.25737 42.257382,42.257382 0 0 0 -34.9875005,-41.585057 27.423568,35.172076 0 0 1 0.8346,0.27336 27.423568,35.172076 0 0 1 2.575,1.2051 27.423568,35.172076 0 0 1 2.4681,1.52962 27.423568,35.172076 0 0 1 2.33680002,1.83762 27.423568,35.172076 0 0 1 2.18229998,2.12752 27.423568,35.172076 0 0 1 2.0061,2.39624 27.423568,35.172076 0 0 1 1.8092,2.641701 27.423568,35.172076 0 0 1 1.5942,2.85977 27.423568,35.172076 0 0 1 1.3637,3.049429 27.423568,35.172076 0 0 1 1.1198005,3.209099 27.423568,35.172076 0 0 1 0.8646,3.336237 27.423568,35.172076 0 0 1 0.6005,3.430281 27.423568,35.172076 0 0 1 0.3302,3.49022 27.423568,35.172076 0 0 1 0.069,2.48822 27.423568,35.172076 0 0 1 -0.1369,3.51141 27.423568,35.172076 0 0 1 -0.4098,3.47628 27.423568,35.172076 0 0 1 -0.678,3.40652 27.423568,35.172076 0 0 1 -0.9400005,3.30263 27.423568,35.172076 0 0 1 -1.1927,3.16571 27.423568,35.172076 0 0 1 -1.4325,2.99722 27.423568,35.172076 0 0 1 -1.6588,2.7988 27.423568,35.172076 0 0 1 -1.8686,2.57246 27.423568,35.172076 0 0 1 -2.0593,2.32026 27.423568,35.172076 0 0 1 -2.22979998,2.04484 27.423568,35.172076 0 0 1 -2.37820002,1.74924 27.423568,35.172076 0 0 1 -2.5017,1.43609 27.423568,35.172076 0 0 1 -2.6013,1.10898 27.423568,35.172076 0 0 1 -2.6747995,0.76998 27.423568,35.172076 0 0 1 -2.7213,0.42323 27.423568,35.172076 0 0 1 -1.9399,0.0884 27.423568,35.172076 0 0 1 -2.7379,-0.1757 27.423568,35.172076 0 0 1 -2.7104,-0.52555 27.423568,35.172076 0 0 1 -2.6562,-0.8697 27.423568,35.172076 0 0 1 -2.575,-1.20562 27.423568,35.172076 0 0 1 -2.468,-1.5291 27.423568,35.172076 0 0 1 -2.3368,-1.83762 27.423568,35.172076 0 0 1 -2.1824,-2.12752 27.423568,35.172076 0 0 1 -2.0055,-2.39674 27.423568,35.172076 0 0 1 -1.8092,-2.64119 27.423568,35.172076 0 0 1 -1.5947,-2.85977 27.423568,35.172076 0 0 1 -1.3638,-3.04995 27.423568,35.172076 0 0 1 -1.1198,-3.20859 27.423568,35.172076 0 0 1 -0.8646,-3.33675 27.423568,35.172076 0 0 1 -0.6004,-3.43028 27.423568,35.172076 0 0 1 -0.3303,-3.49023 27.423568,35.172076 0 0 1 -0.069,-2.4877 27.423568,35.172076 0 0 1 0.1369,-3.51141 27.423568,35.172076 0 0 1 0.4099,-3.47628 27.423568,35.172076 0 0 1 0.678,-3.406501 27.423568,35.172076 0 0 1 0.9399,-3.302645 27.423568,35.172076 0 0 1 1.1927,-3.1657 27.423568,35.172076 0 0 1 1.4325,-2.997232 27.423568,35.172076 0 0 1 1.6593,-2.798789 27.423568,35.172076 0 0 1 1.8681,-2.57246 27.423568,35.172076 0 0 1 2.0599,-2.32027 27.423568,35.172076 0 0 1 2.2293,-2.04485 27.423568,35.172076 0 0 1 2.3781,-1.74975 27.423568,35.172076 0 0 1 2.5022,-1.43609 27.423568,35.172076 0 0 1 2.6014,-1.10846 27.423568,35.172076 0 0 1 0.1106,-0.032 z"
       id="path8198-1"
       inkscape:connector-curvature="0"
       inkscape:export-xdpi="176.78"
       inkscape:export-ydpi="176.78" />
  </g>
</svg>
