<?xml version="1.0" encoding="UTF-8" standalone="no"?>
<!-- Created with Inkscape (http://www.inkscape.org/) -->

<svg
   xmlns:dc="http://purl.org/dc/elements/1.1/"
   xmlns:cc="http://creativecommons.org/ns#"
   xmlns:rdf="http://www.w3.org/1999/02/22-rdf-syntax-ns#"
   xmlns:svg="http://www.w3.org/2000/svg"
   xmlns="http://www.w3.org/2000/svg"
   xmlns:xlink="http://www.w3.org/1999/xlink"
   xmlns:sodipodi="http://sodipodi.sourceforge.net/DTD/sodipodi-0.dtd"
   xmlns:inkscape="http://www.inkscape.org/namespaces/inkscape"
   width="115mm"
   height="47mm"
   viewBox="0 0 115 47"
   version="1.1"
   id="svg8"
   inkscape:version="0.92.3 (2405546, 2018-03-11)"
   sodipodi:docname="football_background_skeleton.svg"
   inkscape:export-filename="C:\Users\Russe\Documents\Gameplai\Front-End\Design\Backgrounds\Grounds\FootballGround_skeleton.png"
   inkscape:export-xdpi="441.73999"
   inkscape:export-ydpi="441.73999">
  <sodipodi:namedview
     inkscape:snap-text-baseline="true"
     inkscape:object-paths="true"
     id="base"
     pagecolor="#ffffff"
     bordercolor="#666666"
     borderopacity="1.0"
     inkscape:pageopacity="0.0"
     inkscape:pageshadow="2"
     inkscape:zoom="2.0000002"
     inkscape:cx="91.760709"
     inkscape:cy="131.16695"
     inkscape:document-units="mm"
     inkscape:current-layer="layer1"
     showgrid="false"
     inkscape:snap-page="true"
     inkscape:pagecheckerboard="true"
     inkscape:snap-bbox="false"
     inkscape:snap-bbox-edge-midpoints="true"
     inkscape:snap-bbox-midpoints="true"
     inkscape:bbox-nodes="true"
     inkscape:bbox-paths="false"
     showguides="false"
     inkscape:guide-bbox="true"
     inkscape:window-width="1920"
     inkscape:window-height="991"
     inkscape:window-x="-9"
     inkscape:window-y="-9"
     inkscape:window-maximized="1"
     inkscape:snap-grids="false"
     inkscape:snap-to-guides="true"
     fit-margin-top="0"
     fit-margin-left="0"
     fit-margin-right="0"
     fit-margin-bottom="0"
     inkscape:snap-intersection-paths="true"
     inkscape:snap-object-midpoints="true"
     inkscape:snap-global="true"
     units="mm"
     inkscape:snap-smooth-nodes="true"
     inkscape:snap-midpoints="true">
    <sodipodi:guide
       position="-565.93376,357.08511"
       orientation="1,0"
       id="guide874"
       inkscape:locked="false" />
    <sodipodi:guide
       position="-554.93376,368.0751"
       orientation="1,0"
       id="guide878"
       inkscape:locked="false" />
    <sodipodi:guide
       position="-482.93377,368.0751"
       orientation="1,0"
       id="guide951"
       inkscape:locked="false" />
    <sodipodi:guide
       position="-471.93377,357.0851"
       orientation="1,0"
       id="guide953"
       inkscape:locked="false" />
    <sodipodi:guide
       position="-560.43376,348.65522"
       orientation="0,1"
       id="guide1042"
       inkscape:locked="false" />
    <sodipodi:guide
       position="-518.93376,348.65522"
       orientation="1,0"
       id="guide1260"
       inkscape:locked="false" />
  </sodipodi:namedview>
  <defs
     id="defs2">
    <linearGradient
       id="linearGradient9202"
       inkscape:collect="always">
      <stop
         id="stop9198"
         offset="0"
         style="stop-color:#6105e4;stop-opacity:1" />
      <stop
         id="stop9200"
         offset="1"
         style="stop-color:#6105e4;stop-opacity:0" />
    </linearGradient>
    <linearGradient
       inkscape:collect="always"
       xlink:href="#linearGradient9202"
       id="linearGradient9196"
       x1="330.36969"
       y1="509.8511"
       x2="342.1701"
       y2="508.72858"
       gradientUnits="userSpaceOnUse" />
  </defs>
  <metadata
     id="metadata5">
    <rdf:RDF>
      <cc:Work
         rdf:about="">
        <dc:format>image/svg+xml</dc:format>
        <dc:type
           rdf:resource="http://purl.org/dc/dcmitype/StillImage" />
        <dc:title />
      </cc:Work>
    </rdf:RDF>
  </metadata>
  <g
     inkscape:label="Layer 1"
     inkscape:groupmode="layer"
     id="layer1"
     transform="translate(-571.43375,-564.65522)">
    <path
       style="opacity:1;fill:none;fill-opacity:1;stroke:#ffffff;stroke-width:1;stroke-linecap:round;stroke-linejoin:round;stroke-miterlimit:4;stroke-dasharray:none;stroke-dashoffset:0;stroke-opacity:1"
       id="path870-1-2-8-6"
       r="2.6243994"
       cy="297"
       cx="0"
       d=""
       inkscape:connector-curvature="0" />
    <path
       style="opacity:1;fill:none;fill-opacity:1;stroke:#ffffff;stroke-width:1;stroke-linecap:round;stroke-linejoin:round;stroke-miterlimit:4;stroke-dasharray:none;stroke-dashoffset:0;stroke-opacity:1"
       id="path870-1-2-8-3"
       r="2.6243994"
       cy="297"
       cx="0"
       d=""
       inkscape:connector-curvature="0" />
    <path
       style="opacity:1;fill:none;fill-opacity:1;stroke:#ffffff;stroke-width:1;stroke-linecap:round;stroke-linejoin:round;stroke-miterlimit:4;stroke-dasharray:none;stroke-dashoffset:0;stroke-opacity:1"
       id="path870-1-2-8-8"
       r="2.6243994"
       cy="297"
       cx="0"
       d=""
       inkscape:connector-curvature="0" />
    <path
       style="opacity:1;fill:none;fill-opacity:1;stroke:#ffffff;stroke-width:1;stroke-linecap:round;stroke-linejoin:round;stroke-miterlimit:4;stroke-dasharray:none;stroke-dashoffset:0;stroke-opacity:1"
       id="path870-1-2-8-9"
       r="2.6243994"
       cy="297"
       cx="0"
       d=""
       inkscape:connector-curvature="0" />
    <path
       style="opacity:1;fill:none;fill-opacity:1;stroke:#ffffff;stroke-width:1;stroke-linecap:round;stroke-linejoin:round;stroke-miterlimit:4;stroke-dasharray:none;stroke-dashoffset:0;stroke-opacity:1"
       id="path870-1-2-8-7"
       r="2.6243994"
       cy="297"
       cx="0"
       d=""
       inkscape:connector-curvature="0" />
    <path
       style="opacity:1;fill:none;fill-opacity:1;stroke:#ffffff;stroke-width:1;stroke-linecap:round;stroke-linejoin:round;stroke-miterlimit:4;stroke-dasharray:none;stroke-dashoffset:0;stroke-opacity:1"
       id="path870-1-2-8-75"
       r="2.6243994"
       cy="297"
       cx="0"
       d=""
       inkscape:connector-curvature="0" />
    <path
       style="opacity:1;fill:none;fill-opacity:1;stroke:#ffffff;stroke-width:1;stroke-linecap:round;stroke-linejoin:round;stroke-miterlimit:4;stroke-dasharray:none;stroke-dashoffset:0;stroke-opacity:1"
       id="path870-1-2-8-85"
       r="2.6243994"
       cy="297"
       cx="0"
       d=""
       inkscape:connector-curvature="0" />
    <path
       style="opacity:1;fill:none;fill-opacity:1;stroke:#ffffff;stroke-width:1;stroke-linecap:round;stroke-linejoin:round;stroke-miterlimit:4;stroke-dasharray:none;stroke-dashoffset:0;stroke-opacity:1"
       id="path870-1-2-8-82"
       r="2.6243994"
       cy="297"
       cx="0"
       d=""
       inkscape:connector-curvature="0" />
    <path
       style="opacity:1;fill:none;fill-opacity:1;stroke:#ffffff;stroke-width:1;stroke-linecap:round;stroke-linejoin:round;stroke-miterlimit:4;stroke-dasharray:none;stroke-dashoffset:0;stroke-opacity:1"
       id="path870-1-2-8-72"
       r="2.6243994"
       cy="297"
       cx="0"
       d=""
       inkscape:connector-curvature="0" />
    <g
       id="g2413"
       transform="translate(1.1270408,0.04848457)" />
    <path
       inkscape:export-ydpi="360.45001"
       inkscape:export-xdpi="360.45001"
       inkscape:export-filename="C:\Users\Russe\OneDrive\Documents\Gameplai\Design\Pitch.png"
       inkscape:connector-curvature="0"
       style="opacity:1;fill:none;fill-opacity:1;stroke:#ffffff;stroke-width:0.60100001;stroke-linecap:round;stroke-linejoin:round;stroke-miterlimit:4;stroke-dasharray:none;stroke-dashoffset:0;stroke-opacity:1"
       d="m 666.20135,572.90298 c 0,0 -74.53571,0 -74.53571,0 0,0 -17.21423,38.44794 -17.21423,38.44794 0,0 108.9647,0 108.9647,0 0,0 -17.21476,-38.44794 -17.21476,-38.44794"
       id="rect817-4-7-4-4" />
    <path
       inkscape:export-ydpi="360.45001"
       inkscape:export-xdpi="360.45001"
       inkscape:export-filename="C:\Users\Russe\OneDrive\Documents\Gameplai\Design\Pitch.png"
       inkscape:connector-curvature="0"
       id="path819-1-5-1-6"
       d="m 628.9335,572.90298 c 0,0 2.7e-4,38.44794 2.7e-4,38.44794"
       style="fill:none;stroke:#ffffff;stroke-width:0.60075259;stroke-linecap:butt;stroke-linejoin:miter;stroke-miterlimit:4;stroke-dasharray:none;stroke-opacity:1" />
    <path
       inkscape:export-ydpi="360.45001"
       inkscape:export-xdpi="360.45001"
       inkscape:export-filename="C:\Users\Russe\OneDrive\Documents\Gameplai\Design\Pitch.png"
       inkscape:connector-curvature="0"
       style="opacity:1;fill:none;fill-opacity:1;stroke:#ffffff;stroke-width:0.60100001;stroke-linecap:round;stroke-linejoin:round;stroke-miterlimit:4;stroke-dasharray:none;stroke-dashoffset:0;stroke-opacity:1"
       d="m 600.97421,580.73392 c 0,0 -12.81471,0 -12.81471,0 0,0 -10.20195,22.78606 -10.20195,22.78606 0,0 16.02108,0 16.02108,0 0,0 6.99558,-22.78606 6.99558,-22.78606"
       id="rect821-4-9-0-1-3" />
    <path
       inkscape:export-ydpi="360.45001"
       inkscape:export-xdpi="360.45001"
       inkscape:export-filename="C:\Users\Russe\OneDrive\Documents\Gameplai\Design\Pitch.png"
       inkscape:connector-curvature="0"
       style="opacity:1;fill:none;fill-opacity:1;stroke:#ffffff;stroke-width:0.60075259;stroke-linecap:round;stroke-linejoin:round;stroke-miterlimit:4;stroke-dasharray:none;stroke-dashoffset:0;stroke-opacity:1"
       d="m 589.94042,586.94778 c 0,0 -4.56303,0 -4.56303,0 0,0 -4.63772,10.35833 -4.63772,10.35833 0,0 5.0489,0 5.0489,0 0,0 4.15185,-10.35833 4.15185,-10.35833"
       id="rect838-0-7-7-1-3" />
    <path
       inkscape:export-ydpi="360.45001"
       inkscape:export-xdpi="360.45001"
       inkscape:export-filename="C:\Users\Russe\OneDrive\Documents\Gameplai\Design\Pitch.png"
       inkscape:connector-curvature="0"
       style="opacity:1;fill:#ffffff;fill-opacity:1;stroke:none;stroke-width:0.37246662;stroke-linecap:round;stroke-linejoin:round;stroke-miterlimit:4;stroke-dasharray:none;stroke-dashoffset:0;stroke-opacity:1"
       d="m 592.03053,592.12695 c -0.0395,0.10982 -0.01,0.21514 0.0825,0.29279 0.0926,0.0777 0.24045,0.12128 0.41086,0.12128 0.1704,0 0.34912,-0.0436 0.4967,-0.12128 0.1474,-0.0777 0.25158,-0.18297 0.28976,-0.29279 0.0382,-0.10982 0.008,-0.21514 -0.0851,-0.29279 -0.0924,-0.0777 -0.23924,-0.12128 -0.40827,-0.12128 -0.16903,0 -0.34672,0.0436 -0.49412,0.12128 -0.14758,0.0777 -0.25279,0.18297 -0.29235,0.29279 0,0 0,0 0,0"
       id="path880-0-3-9-1-0" />
    <path
       inkscape:export-ydpi="360.45001"
       inkscape:export-xdpi="360.45001"
       inkscape:export-filename="C:\Users\Russe\OneDrive\Documents\Gameplai\Design\Pitch.png"
       inkscape:connector-curvature="0"
       style="opacity:1;fill:none;fill-opacity:1;stroke:#ffffff;stroke-width:0.60075259;stroke-linecap:round;stroke-linejoin:round;stroke-miterlimit:4;stroke-dasharray:none;stroke-dashoffset:0;stroke-opacity:1"
       d="m 596.18693,596.29643 c 2.41235,-0.97382 4.08773,-2.52004 4.54379,-4.16497 0.45599,-1.64492 -0.28636,-3.1925 -1.96858,-4.16864"
       id="path870-1-1-0-8-7" />
    <path
       inkscape:export-ydpi="360.45001"
       inkscape:export-xdpi="360.45001"
       inkscape:export-filename="C:\Users\Russe\OneDrive\Documents\Gameplai\Design\Pitch.png"
       inkscape:connector-curvature="0"
       style="opacity:1;fill:none;fill-opacity:1;stroke:#ffffff;stroke-width:0.60075259;stroke-linecap:round;stroke-linejoin:round;stroke-miterlimit:4;stroke-dasharray:none;stroke-dashoffset:0;stroke-opacity:1"
       d="m 669.7076,580.73392 c 0,0 -12.8147,0 -12.8147,0 0,0 6.99589,22.78606 6.99589,22.78606 0,0 16.02108,0 16.02108,0 0,0 -10.20227,-22.78606 -10.20227,-22.78606"
       id="rect821-5-0-3-6" />
    <path
       inkscape:export-ydpi="360.45001"
       inkscape:export-xdpi="360.45001"
       inkscape:export-filename="C:\Users\Russe\OneDrive\Documents\Gameplai\Design\Pitch.png"
       inkscape:connector-curvature="0"
       style="opacity:1;fill:none;fill-opacity:1;stroke:#ffffff;stroke-width:0.60075259;stroke-linecap:round;stroke-linejoin:round;stroke-miterlimit:4;stroke-dasharray:none;stroke-dashoffset:0;stroke-opacity:1"
       d="m 672.4898,586.94778 c 0,0 -4.56303,0 -4.56303,0 0,0 4.152,10.35833 4.152,10.35833 0,0 5.04889,0 5.04889,0 0,0 -4.63786,-10.35833 -4.63786,-10.35833"
       id="rect838-00-6-6-9" />
    <path
       inkscape:export-ydpi="360.45001"
       inkscape:export-xdpi="360.45001"
       inkscape:export-filename="C:\Users\Russe\OneDrive\Documents\Gameplai\Design\Pitch.png"
       inkscape:connector-curvature="0"
       style="opacity:1;fill:#ffffff;fill-opacity:1;stroke:none;stroke-width:0.37246662;stroke-linecap:round;stroke-linejoin:round;stroke-miterlimit:4;stroke-dasharray:none;stroke-dashoffset:0;stroke-opacity:1"
       d="m 664.55689,592.12695 c 0.0382,0.10982 0.14236,0.21514 0.28976,0.29279 0.14758,0.0777 0.32631,0.12128 0.49671,0.12128 0.1704,0 0.31824,-0.0436 0.41086,-0.12128 0.0924,-0.0777 0.12206,-0.18297 0.0825,-0.29279 -0.0395,-0.10982 -0.14477,-0.21514 -0.29235,-0.29279 -0.1474,-0.0777 -0.32509,-0.12128 -0.49412,-0.12128 -0.16904,0 -0.31584,0.0436 -0.40828,0.12128 -0.0926,0.0777 -0.12327,0.18297 -0.0851,0.29279 0,0 0,0 0,0"
       id="path880-08-9-4-3" />
    <path
       inkscape:export-ydpi="360.45001"
       inkscape:export-xdpi="360.45001"
       inkscape:export-filename="C:\Users\Russe\OneDrive\Documents\Gameplai\Design\Pitch.png"
       inkscape:connector-curvature="0"
       style="opacity:1;fill:none;fill-opacity:1;stroke:#ffffff;stroke-width:0.60075259;stroke-linecap:round;stroke-linejoin:round;stroke-miterlimit:4;stroke-dasharray:none;stroke-dashoffset:0;stroke-opacity:1"
       d="m 620.93826,592.12695 c -0.10706,1.3721 0.65473,2.688 2.13996,3.65823 1.51363,0.97022 3.62787,1.51528 5.85545,1.51528 2.22757,0 4.34181,-0.54506 5.85542,-1.51528 1.48523,-0.97023 2.247,-2.28613 2.13991,-3.65823 -0.10707,-1.3721 -1.03003,-2.688 -2.54367,-3.65822 -1.48523,-0.97022 -3.4383,-1.51529 -5.45174,-1.51529 -2.01343,0 -3.9665,0.54507 -5.45171,1.51529 -1.51362,0.97022 -2.43656,2.28612 -2.54362,3.65822 0,0 0,0 0,0"
       id="path870-1-2-0-4-7-4" />
    <path
       inkscape:export-ydpi="360.45001"
       inkscape:export-xdpi="360.45001"
       inkscape:export-filename="C:\Users\Russe\OneDrive\Documents\Gameplai\Design\Pitch.png"
       inkscape:connector-curvature="0"
       style="opacity:1;fill:none;fill-opacity:1;stroke:#ffffff;stroke-width:0.60075259;stroke-linecap:round;stroke-linejoin:round;stroke-miterlimit:4;stroke-dasharray:none;stroke-dashoffset:0;stroke-opacity:1"
       d="m 659.08078,588.01704 c -1.61805,0.97882 -2.32397,2.49835 -1.87935,4.10991 0.44463,1.61156 2.05995,3.13109 4.39902,4.10991"
       id="path870-1-9-1-6-9-6" />
    <path
       inkscape:export-ydpi="360.45001"
       inkscape:export-xdpi="360.45001"
       inkscape:export-filename="C:\Users\Russe\OneDrive\Documents\Gameplai\Design\Pitch.png"
       inkscape:connector-curvature="0"
       style="opacity:1;fill:#ffffff;fill-opacity:1;stroke:none;stroke-width:0.37246662;stroke-linecap:round;stroke-linejoin:round;stroke-miterlimit:4;stroke-dasharray:none;stroke-dashoffset:0;stroke-opacity:1"
       d="m 628.29371,592.12695 c -5.3e-4,0.10982 0.0662,0.21514 0.18614,0.29279 0.1201,0.0777 0.28338,0.12128 0.45379,0.12128 0.1704,0 0.33368,-0.0436 0.45377,-0.12128 0.11993,-0.0777 0.18683,-0.18297 0.18614,-0.29279 -5.3e-4,-0.10982 -0.0686,-0.21514 -0.18872,-0.29279 -0.11992,-0.0777 -0.28217,-0.12128 -0.4512,-0.12128 -0.16903,0 -0.33129,0.0436 -0.4512,0.12128 -0.1201,0.0777 -0.18803,0.18297 -0.18872,0.29279 0,0 0,0 0,0"
       id="path880-0-5-4-7-0-0" />
    <path
       inkscape:export-ydpi="360.45001"
       inkscape:export-xdpi="360.45001"
       inkscape:export-filename="C:\Users\Russe\OneDrive\Documents\Gameplai\Design\Pitch.png"
       inkscape:connector-curvature="0"
       style="opacity:1;fill:none;fill-opacity:1;stroke:#ffffff;stroke-width:0.60075259;stroke-linecap:round;stroke-linejoin:round;stroke-miterlimit:4;stroke-dasharray:none;stroke-dashoffset:0;stroke-opacity:1"
       d="m 682.7838,609.93868 c -0.67947,0 -1.26613,0.14879 -1.63258,0.41363 -0.36857,0.26485 -0.48683,0.62405 -0.32711,0.9986"
       id="path870-1-2-5-04-2-3-3" />
    <path
       inkscape:export-ydpi="360.45001"
       inkscape:export-xdpi="360.45001"
       inkscape:export-filename="C:\Users\Russe\OneDrive\Documents\Gameplai\Design\Pitch.png"
       inkscape:connector-curvature="0"
       style="opacity:1;fill:none;fill-opacity:1;stroke:#ffffff;stroke-width:0.60075259;stroke-linecap:round;stroke-linejoin:round;stroke-miterlimit:4;stroke-dasharray:none;stroke-dashoffset:0;stroke-opacity:1"
       d="m 664.42834,572.90298 c 0.15972,0.37455 0.50134,0.73375 0.95137,0.99859 0.45215,0.26485 0.97575,0.41363 1.45395,0.41363"
       id="path870-1-2-5-0-4-7-5-1" />
    <path
       inkscape:export-ydpi="360.45001"
       inkscape:export-xdpi="360.45001"
       inkscape:export-filename="C:\Users\Russe\OneDrive\Documents\Gameplai\Design\Pitch.png"
       inkscape:connector-curvature="0"
       style="opacity:1;fill:none;fill-opacity:1;stroke:#ffffff;stroke-width:0.60075259;stroke-linecap:round;stroke-linejoin:round;stroke-miterlimit:4;stroke-dasharray:none;stroke-dashoffset:0;stroke-opacity:1"
       d="m 591.03335,574.3152 c 0.47821,0 1.00181,-0.14879 1.45395,-0.41363 0.45003,-0.26484 0.79164,-0.62404 0.95136,-0.99859"
       id="path870-1-2-5-9-4-8-1-2" />
    <path
       inkscape:export-ydpi="360.45001"
       inkscape:export-xdpi="360.45001"
       inkscape:export-filename="C:\Users\Russe\OneDrive\Documents\Gameplai\Design\Pitch.png"
       inkscape:connector-curvature="0"
       style="opacity:1;fill:none;fill-opacity:1;stroke:#ffffff;stroke-width:0.60075259;stroke-linecap:round;stroke-linejoin:round;stroke-miterlimit:4;stroke-dasharray:none;stroke-dashoffset:0;stroke-opacity:1"
       d="m 577.04342,611.35091 c 0.15971,-0.37455 0.0414,-0.73375 -0.32712,-0.9986 -0.36646,-0.26484 -0.95313,-0.41363 -1.63259,-0.41363"
       id="path870-1-2-5-8-3-7-7-8" />
    <path
       inkscape:export-ydpi="360.45001"
       inkscape:export-xdpi="360.45001"
       inkscape:export-filename="C:\Users\Russe\OneDrive\Documents\Gameplai\Design\Pitch.png"
       inkscape:connector-curvature="0"
       style="opacity:1;fill:none;fill-opacity:1;stroke:#ffffff;stroke-width:0.60075259;stroke-linecap:round;stroke-linejoin:round;stroke-miterlimit:4;stroke-dasharray:none;stroke-dashoffset:0;stroke-opacity:1"
       d="m 620.93826,592.12695 c -0.10706,1.3721 0.65473,2.688 2.13996,3.65823 1.51363,0.97022 3.62787,1.51528 5.85545,1.51528 2.22757,0 4.34181,-0.54506 5.85542,-1.51528 1.48523,-0.97023 2.247,-2.28613 2.13991,-3.65823 -0.10707,-1.3721 -1.03003,-2.688 -2.54367,-3.65822 -1.48523,-0.97022 -3.4383,-1.51529 -5.45174,-1.51529 -2.01343,0 -3.9665,0.54507 -5.45171,1.51529 -1.51362,0.97022 -2.43656,2.28612 -2.54362,3.65822 0,0 0,0 0,0"
       id="path870-1-2-0-4-7-7-8" />
    <path
       inkscape:connector-curvature="0"
       id="path1667-7"
       d="m 584.4136,589.00735 v -4.47733"
       style="fill:none;stroke:#ffffff;stroke-width:0.69999999;stroke-linecap:round;stroke-linejoin:miter;stroke-miterlimit:4;stroke-dasharray:none;stroke-opacity:1" />
    <path
       inkscape:connector-curvature="0"
       id="path1665-7"
       d="m 673.45724,589.00737 v -4.47733"
       style="fill:none;stroke:#ffffff;stroke-width:0.69999999;stroke-linecap:round;stroke-linejoin:miter;stroke-miterlimit:4;stroke-dasharray:none;stroke-opacity:1" />
    <path
       inkscape:connector-curvature="0"
       id="path2423-3-6-0"
       d="m 574.45141,611.37624 v -7.44211"
       style="fill:none;stroke:#ffffff;stroke-width:0.60000002;stroke-linecap:round;stroke-linejoin:miter;stroke-miterlimit:4;stroke-dasharray:none;stroke-opacity:1" />
    <path
       inkscape:connector-curvature="0"
       id="path2423-3-6-6-7"
       d="M 666.20135,572.92831 V 565.4862"
       style="fill:none;stroke:#ffffff;stroke-width:0.60000002;stroke-linecap:round;stroke-linejoin:miter;stroke-miterlimit:4;stroke-dasharray:none;stroke-opacity:1" />
    <path
       inkscape:connector-curvature="0"
       id="path2423-3-6-2-1"
       d="M 591.66564,572.92831 V 565.4862"
       style="fill:none;stroke:#ffffff;stroke-width:0.60000002;stroke-linecap:round;stroke-linejoin:miter;stroke-miterlimit:4;stroke-dasharray:none;stroke-opacity:1" />
    <path
       inkscape:connector-curvature="0"
       id="path2423-3-6-1-6"
       d="m 683.41611,611.37624 v -7.44211"
       style="fill:none;stroke:#ffffff;stroke-width:0.60000002;stroke-linecap:round;stroke-linejoin:miter;stroke-miterlimit:4;stroke-dasharray:none;stroke-opacity:1" />
  </g>
</svg>
