<?xml version="1.0" encoding="UTF-8" standalone="no"?>
<!-- Created with Inkscape (http://www.inkscape.org/) -->

<svg
   xmlns:dc="http://purl.org/dc/elements/1.1/"
   xmlns:cc="http://creativecommons.org/ns#"
   xmlns:rdf="http://www.w3.org/1999/02/22-rdf-syntax-ns#"
   xmlns:svg="http://www.w3.org/2000/svg"
   xmlns="http://www.w3.org/2000/svg"
   xmlns:sodipodi="http://sodipodi.sourceforge.net/DTD/sodipodi-0.dtd"
   xmlns:inkscape="http://www.inkscape.org/namespaces/inkscape"
   width="2977.7021mm"
   height="762.87872mm"
   viewBox="0 0 2977.7021 762.87872"
   version="1.1"
   id="svg8"
   inkscape:version="0.92.3 (2405546, 2018-03-11)"
   sodipodi:docname="fanbattleslogo_blue_foruse.svg">
  <defs
     id="defs2" />
  <sodipodi:namedview
     id="base"
     pagecolor="#ffffff"
     bordercolor="#666666"
     borderopacity="1.0"
     inkscape:pageopacity="0.0"
     inkscape:pageshadow="2"
     inkscape:zoom="0.061871843"
     inkscape:cx="7223.3946"
     inkscape:cy="2183.9309"
     inkscape:document-units="mm"
     inkscape:current-layer="layer1"
     showgrid="false"
     showguides="true"
     inkscape:guide-bbox="true"
     inkscape:snap-smooth-nodes="true"
     inkscape:snap-intersection-paths="true"
     inkscape:object-paths="true"
     inkscape:snap-midpoints="true"
     inkscape:snap-global="false"
     inkscape:window-width="1920"
     inkscape:window-height="991"
     inkscape:window-x="-9"
     inkscape:window-y="-9"
     inkscape:window-maximized="1"
     fit-margin-top="0"
     fit-margin-left="0"
     fit-margin-right="0"
     fit-margin-bottom="0"
     inkscape:pagecheckerboard="true" />
  <metadata
     id="metadata5">
    <rdf:RDF>
      <cc:Work
         rdf:about="">
        <dc:format>image/svg+xml</dc:format>
        <dc:type
           rdf:resource="http://purl.org/dc/dcmitype/StillImage" />
        <dc:title></dc:title>
      </cc:Work>
    </rdf:RDF>
  </metadata>
  <g
     inkscape:label="Layer 1"
     inkscape:groupmode="layer"
     id="layer1"
     transform="translate(1476.0733,669.01258)">
    <path
       inkscape:connector-curvature="0"
       style="color:#000000;font-style:normal;font-variant:normal;font-weight:normal;font-stretch:normal;font-size:medium;line-height:normal;font-family:sans-serif;font-variant-ligatures:normal;font-variant-position:normal;font-variant-caps:normal;font-variant-numeric:normal;font-variant-alternates:normal;font-feature-settings:normal;text-indent:0;text-align:start;text-decoration:none;text-decoration-line:none;text-decoration-style:solid;text-decoration-color:#000000;letter-spacing:normal;word-spacing:normal;text-transform:none;writing-mode:lr-tb;direction:ltr;text-orientation:mixed;dominant-baseline:auto;baseline-shift:baseline;text-anchor:start;white-space:normal;shape-padding:0;clip-rule:nonzero;display:inline;overflow:visible;visibility:visible;opacity:1;isolation:auto;mix-blend-mode:normal;color-interpolation:sRGB;color-interpolation-filters:linearRGB;solid-color:#000000;solid-opacity:1;vector-effect:none;fill:#1493ff;fill-opacity:0.94117647;fill-rule:nonzero;stroke:none;stroke-width:116.86116028;stroke-linecap:butt;stroke-linejoin:miter;stroke-miterlimit:4;stroke-dasharray:none;stroke-dashoffset:0;stroke-opacity:1;color-rendering:auto;image-rendering:auto;shape-rendering:auto;text-rendering:auto;enable-background:accumulate"
       d="m -1202.8949,-669.01258 c -5.8806,0 -11.7349,0.062 -17.5573,0.17723 -77.6313,1.53825 -149.5606,12.83923 -201.2447,27.81542 l -33.0872,9.58794 -7.6315,33.58867 c -29.865,131.48692 -7.5795,267.3756 36.1693,385.93233 43.7497,118.556859 108.5745,220.2138251 175.4001,286.79665 l 11.7779,11.737769 c -3.0363,-64.109772 -3.2962,-126.232029 -0.9783,-186.50353 -22.5758,-34.709819 -44.2356,-74.475409 -62.584,-117.387479 h 70.5331 c 3.8939,-39.77921 8.9512,-78.72076 15.1157,-116.86205 h -124.5035 c -16.1548,-67.26549 -22.1078,-136.60114 -13.2895,-201.95719 44.1451,-8.82713 103.5117,-15.69949 165.3589,-15.23427 4.1232,0.0311 8.2567,0.0958 12.3979,0.19321 2.9978,0.0714 5.9929,0.16751 8.9862,0.27385 11.4999,-39.25455 24.2296,-77.61405 38.1139,-115.12887 -24.4794,-2.08337 -48.9442,-3.04136 -72.9752,-3.02952 z m 112.8785,7.46821 c -13.9035,36.89747 -26.6654,74.62422 -38.2067,113.2447 11.0355,1.04535 21.9107,2.36449 32.5057,4.01795 51.9436,8.1065 97.17122,23.91418 125.31448,44.27975 27.80438,20.12013 40.89634,39.9033 42.3536,76.52177 -0.29215,15.84844 -11.89412,34.90309 -49.49151,54.86998 -38.08147,20.22414 -97.10577,34.48051 -159.92167,34.48051 h -40.1211 c -6.2958,38.10472 -11.4629,77.04257 -15.4355,116.86204 h 55.5566 c 41.2356,0 66.1059,11.56782 81.7717,26.58967 15.4883,14.85237 24.4255,35.16289 24.6264,64.51829 -1.938,52.620276 -15.4665,69.83263 -40.6037,84.267748 -21.9936,12.629583 -61.1296,19.320466 -110.7447,17.863211 -6.6131,-7.311234 -13.3225,-15.20991 -20.0654,-23.636489 -0.6124,45.6757283 0.2688,92.459115 2.7135,140.408065 67.6327,4.037162 131.5561,-1.863001 186.2922,-33.294834 58.61563,-33.659925 96.60757,-101.114441 99.31681,-182.739191 l 0.0389,-0.96624 v -0.96622 c 0,-45.83922 -13.68327,-90.3729 -40.30035,-126.23459 10.75084,-4.43137 21.7019,-8.63201 31.69665,-13.93997 60.34164,-32.04578 111.66472,-86.94011 111.66472,-158.72016 v -0.91994 l -0.0389,-0.92191 c -2.27414,-71.91004 -40.04015,-131.98223 -90.80385,-168.71669 -50.76371,-36.73433 -112.40838,-55.17288 -175.80048,-65.06587 -4.1002,-0.63994 -8.2105,-1.23267 -12.3253,-1.80158 z"
       id="path815-6-4-2-2-3-5" />
    <path
       inkscape:connector-curvature="0"
       id="path1419"
       style="font-style:normal;font-variant:normal;font-weight:600;font-stretch:normal;font-size:medium;line-height:1.25;font-family:'Shentox TRIAL';-inkscape-font-specification:'Shentox TRIAL Semi-Bold';letter-spacing:0px;word-spacing:0px;fill:#ffffff;fill-opacity:1;stroke:none;stroke-width:7.11999798"
       d="m -523.34151,-469.71553 v -51.03614 h -132.14716 v -90.6803 h 143.99484 v -50.58046 h -203.23322 v 317.60887 h 59.23838 v -125.31197 z" />
    <path
       inkscape:connector-curvature="0"
       id="path1421"
       style="font-style:normal;font-variant:normal;font-weight:600;font-stretch:normal;font-size:medium;line-height:1.25;font-family:'Shentox TRIAL';-inkscape-font-specification:'Shentox TRIAL Semi-Bold';letter-spacing:0px;word-spacing:0px;fill:#ffffff;fill-opacity:1;stroke:none;stroke-width:7.11999798"
       d="m -431.63594,-344.40356 v -69.71902 h 115.74269 v 69.71902 h 57.41566 v -71.54174 c 0,-11.84768 -4.10112,-25.0624 -5.46816,-28.70784 l -77.46557,-217.81497 h -62.42815 l -77.92125,217.81497 c -1.36704,4.10112 -5.46816,16.86016 -5.46816,28.70784 v 71.54174 z m 57.87135,-254.72505 44.20094,135.7926 h -88.40189 z" />
    <path
       inkscape:connector-curvature="0"
       id="path1423"
       style="font-style:normal;font-variant:normal;font-weight:600;font-stretch:normal;font-size:medium;line-height:1.25;font-family:'Shentox TRIAL';-inkscape-font-specification:'Shentox TRIAL Semi-Bold';letter-spacing:0px;word-spacing:0px;fill:#ffffff;fill-opacity:1;stroke:none;stroke-width:7.11999798"
       d="m -38.804289,-344.40356 h 54.225905 v -317.60887 h -55.592944 v 204.60026 L -153.63562,-662.01243 h -54.68158 v 317.60887 h 55.59294 v -205.05595 z" />
    <path
       inkscape:connector-curvature="0"
       id="path1425"
       style="font-style:normal;font-variant:normal;font-weight:600;font-stretch:normal;font-size:medium;line-height:1.25;font-family:'Shentox TRIAL';-inkscape-font-specification:'Shentox TRIAL Semi-Bold';letter-spacing:0px;word-spacing:0px;fill:#ffffff;fill-opacity:1;stroke:none;stroke-width:7.11999798"
       d="M 80.042724,-344.40356 H 236.7966 c 43.74527,0 66.98494,-23.23968 66.98494,-66.07359 v -47.84638 c 0,-26.88511 -13.6704,-45.11231 -40.55551,-50.58047 21.87264,-7.74656 33.72031,-25.06239 33.72031,-49.6691 v -37.36575 c 0,-42.83391 -23.69535,-66.07358 -66.98494,-66.07358 H 80.042724 Z M 220.39212,-611.88765 c 11.84768,0 17.77152,5.46816 17.77152,16.86016 v 46.02366 c 0,10.48064 -5.92384,15.9488 -16.86016,15.9488 h -82.02237 v -78.83262 z m 7.29088,128.50173 c 11.392,0 17.31584,5.46815 17.31584,16.40447 v 55.13726 c 0,11.84768 -5.92384,17.31584 -17.77152,17.31584 h -87.94621 v -88.85757 z" />
    <path
       inkscape:connector-curvature="0"
       id="path1427"
       style="font-style:normal;font-variant:normal;font-weight:600;font-stretch:normal;font-size:medium;line-height:1.25;font-family:'Shentox TRIAL';-inkscape-font-specification:'Shentox TRIAL Semi-Bold';letter-spacing:0px;word-spacing:0px;fill:#ffffff;fill-opacity:1;stroke:none;stroke-width:7.11999798"
       d="m 399.62386,-344.40356 v -69.71902 h 115.74269 v 69.71902 h 57.41566 v -71.54174 c 0,-11.84768 -4.10112,-25.0624 -5.46816,-28.70784 l -77.46558,-217.81497 h -62.42814 l -77.92126,217.81497 c -1.36704,4.10112 -5.46816,16.86016 -5.46816,28.70784 v 71.54174 z m 57.87134,-254.72505 44.20095,135.7926 h -88.4019 z" />
    <path
       inkscape:connector-curvature="0"
       id="path1429"
       style="font-style:normal;font-variant:normal;font-weight:600;font-stretch:normal;font-size:medium;line-height:1.25;font-family:'Shentox TRIAL';-inkscape-font-specification:'Shentox TRIAL Semi-Bold';letter-spacing:0px;word-spacing:0px;fill:#ffffff;fill-opacity:1;stroke:none;stroke-width:7.11999798"
       d="m 791.66518,-610.52061 v -51.49182 H 576.1286 v 51.49182 h 78.37694 v 266.11705 h 59.23838 v -266.11705 z" />
    <path
       inkscape:connector-curvature="0"
       id="path1431"
       style="font-style:normal;font-variant:normal;font-weight:600;font-stretch:normal;font-size:medium;line-height:1.25;font-family:'Shentox TRIAL';-inkscape-font-specification:'Shentox TRIAL Semi-Bold';letter-spacing:0px;word-spacing:0px;fill:#ffffff;fill-opacity:1;stroke:none;stroke-width:7.11999798"
       d="m 1026.6251,-610.52061 v -51.49182 H 811.08856 v 51.49182 h 78.37694 v 266.11705 h 59.23839 v -266.11705 z" />
    <path
       inkscape:connector-curvature="0"
       id="path1433"
       style="font-style:normal;font-variant:normal;font-weight:600;font-stretch:normal;font-size:medium;line-height:1.25;font-family:'Shentox TRIAL';-inkscape-font-specification:'Shentox TRIAL Semi-Bold';letter-spacing:0px;word-spacing:0px;fill:#ffffff;fill-opacity:1;stroke:none;stroke-width:7.11999798"
       d="m 1068.8324,-344.40356 h 188.6515 v -51.49183 h -129.4131 v -266.11704 h -59.2384 z" />
    <path
       inkscape:connector-curvature="0"
       id="path1435"
       style="font-style:normal;font-variant:normal;font-weight:600;font-stretch:normal;font-size:medium;line-height:1.25;font-family:'Shentox TRIAL';-inkscape-font-specification:'Shentox TRIAL Semi-Bold';letter-spacing:0px;word-spacing:0px;fill:#ffffff;fill-opacity:1;stroke:none;stroke-width:7.11999798"
       d="m 1294.8923,-344.40356 h 202.3219 v -50.58047 h -143.0835 v -88.40189 h 127.5904 v -49.66911 h -127.5904 v -78.37694 h 139.4381 v -50.58046 h -198.6765 z" />
    <path
       inkscape:connector-curvature="0"
       id="path1398"
       style="font-style:normal;font-variant:normal;font-weight:600;font-stretch:normal;font-size:medium;line-height:1.25;font-family:'Shentox TRIAL';-inkscape-font-specification:'Shentox TRIAL Semi-Bold';letter-spacing:0px;word-spacing:0px;fill:#148df6;fill-opacity:1;stroke:none;stroke-width:5.9416461"
       d="m -714.67643,-147.97216 c 0,29.6607 16.35141,42.96998 34.22389,47.53317 l 88.60182,23.196184 c 7.98558,1.901327 11.0277,5.323715 11.0277,13.309287 v 36.885739 c 0,8.365838 -4.18292,13.309287 -14.83035,13.309287 h -57.80033 c -9.8869,0 -14.83035,-4.563184 -14.83035,-13.309287 v -23.956717 h -48.67397 v 24.717248 c 0,34.9844121 19.39354,53.99768 54.75821,53.99768 h 74.53201 c 36.12521,0 55.89901,-19.0132679 55.89901,-53.99768 v -47.533169 c 0,-22.435656 -12.54876,-38.406802 -36.88574,-44.871312 l -86.7005,-22.43565 c -8.7461,-2.2816 -10.64743,-5.70399 -10.64743,-14.45009 v -30.04096 c 0,-8.7461 4.94345,-13.30929 14.83035,-13.30929 h 53.23715 c 9.8869,0 14.83035,4.56319 14.83035,13.30929 v 26.23831 h 48.67396 v -26.99884 c 0,-34.98441 -19.7738,-53.99768 -54.75821,-53.99768 h -69.58856 c -36.12521,0 -55.89901,19.01327 -55.89901,53.99768 z" />
    <path
       inkscape:connector-curvature="0"
       id="path1400"
       style="font-style:normal;font-variant:normal;font-weight:600;font-stretch:normal;font-size:medium;line-height:1.25;font-family:'Shentox TRIAL';-inkscape-font-specification:'Shentox TRIAL Semi-Bold';letter-spacing:0px;word-spacing:0px;fill:#148df6;fill-opacity:1;stroke:none;stroke-width:5.9416461"
       d="m -360.29289,-68.876968 c 36.12521,0 55.899,-19.773799 55.899,-55.899002 v -58.1806 c 0,-36.12521 -19.77379,-55.89901 -55.899,-55.89901 h -125.1073 V 26.189369 h 49.43449 v -95.066337 z m -7.98557,-127.388892 c 9.88689,0 14.45008,4.94345 14.45008,14.83035 v 54.75821 c 0,9.8869 -4.56319,14.83035 -14.45008,14.83035 h -67.68724 v -84.41891 z" />
    <path
       inkscape:connector-curvature="0"
       id="path1402"
       style="font-style:normal;font-variant:normal;font-weight:600;font-stretch:normal;font-size:medium;line-height:1.25;font-family:'Shentox TRIAL';-inkscape-font-specification:'Shentox TRIAL Semi-Bold';letter-spacing:0px;word-spacing:0px;fill:#148df6;fill-opacity:1;stroke:none;stroke-width:5.9416461"
       d="m -136.32255,27.710431 c 36.12521,0 55.899006,-19.7737986 55.899006,-55.899007 V -184.47763 c 0,-36.12521 -19.773796,-55.89901 -55.899006,-55.89901 h -74.91227 c -36.12521,0 -55.89901,19.7738 -55.89901,55.89901 v 156.289054 c 0,36.1252084 19.7738,55.899007 55.89901,55.899007 z m -81.37679,-211.047271 c 0,-9.8869 4.94345,-14.83035 14.83035,-14.83035 h 58.1806 c 9.8869,0 14.83035,4.94345 14.83035,14.83035 v 154.007468 c 0,9.506634 -4.94345,14.830349 -14.83035,14.830349 h -58.1806 c -9.50663,0 -14.83035,-5.323715 -14.83035,-15.210614 z" />
    <path
       inkscape:connector-curvature="0"
       id="path1404"
       style="font-style:normal;font-variant:normal;font-weight:600;font-stretch:normal;font-size:medium;line-height:1.25;font-family:'Shentox TRIAL';-inkscape-font-specification:'Shentox TRIAL Semi-Bold';letter-spacing:0px;word-spacing:0px;fill:#148df6;fill-opacity:1;stroke:none;stroke-width:5.9416461"
       d="M 98.788371,26.189369 H 151.64525 L 116.28058,-78.763867 c 22.43565,-6.844777 34.60414,-25.097513 34.60414,-53.237153 v -50.95555 c 0,-36.12521 -19.77379,-55.89901 -55.899002,-55.89901 h -125.1073 V 26.189369 H 19.312913 V -76.10201 H 66.085551 Z M 87.000145,-197.02639 c 9.8869,0 14.450085,5.32371 14.450085,14.83035 v 49.43449 c 0,9.8869 -4.563185,14.83035 -14.450085,14.83035 H 19.312913 v -79.09519 z" />
    <path
       inkscape:connector-curvature="0"
       id="path1406"
       style="font-style:normal;font-variant:normal;font-weight:600;font-stretch:normal;font-size:medium;line-height:1.25;font-family:'Shentox TRIAL';-inkscape-font-specification:'Shentox TRIAL Semi-Bold';letter-spacing:0px;word-spacing:0px;fill:#148df6;fill-opacity:1;stroke:none;stroke-width:5.9416461"
       d="m 357.99861,-195.8856 v -42.96998 H 178.13309 v 42.96998 h 65.40564 V 26.189369 h 49.4345 V -195.8856 Z" />
    <path
       inkscape:connector-curvature="0"
       id="path1408"
       style="font-style:normal;font-variant:normal;font-weight:600;font-stretch:normal;font-size:medium;line-height:1.25;font-family:'Shentox TRIAL';-inkscape-font-specification:'Shentox TRIAL Semi-Bold';letter-spacing:0px;word-spacing:0px;fill:#148df6;fill-opacity:1;stroke:none;stroke-width:5.9416461"
       d="m 386.75619,-147.97216 c 0,29.6607 16.35141,42.96998 34.22388,47.53317 l 88.60183,23.196184 c 7.98557,1.901327 11.0277,5.323715 11.0277,13.309287 v 36.885739 c 0,8.365838 -4.18292,13.309287 -14.83035,13.309287 h -57.80034 c -9.8869,0 -14.83035,-4.563184 -14.83035,-13.309287 V -51.004497 H 384.4746 v 24.717248 c 0,34.9844121 19.39353,53.99768 54.75821,53.99768 h 74.53201 c 36.12521,0 55.89901,-19.0132679 55.89901,-53.99768 v -47.533169 c 0,-22.435656 -12.54876,-38.406802 -36.88574,-44.871312 l -86.7005,-22.43565 c -8.74611,-2.2816 -10.64743,-5.70399 -10.64743,-14.45009 v -30.04096 c 0,-8.7461 4.94345,-13.30929 14.83035,-13.30929 h 53.23714 c 9.8869,0 14.83035,4.56319 14.83035,13.30929 v 26.23831 h 48.67397 v -26.99884 c 0,-34.98441 -19.7738,-53.99768 -54.75821,-53.99768 H 442.6552 c -36.12521,0 -55.89901,19.01327 -55.89901,53.99768 z" />
    <path
       inkscape:connector-curvature="0"
       id="path1410"
       style="font-style:normal;font-variant:normal;font-weight:600;font-stretch:normal;font-size:medium;line-height:1.25;font-family:'Shentox TRIAL';-inkscape-font-specification:'Shentox TRIAL Semi-Bold';letter-spacing:0px;word-spacing:0px;fill:#148df6;fill-opacity:1;stroke:none;stroke-width:5.9416461"
       d="m 616.03247,26.189369 h 130.81128 c 36.50547,0 55.89901,-19.3935327 55.89901,-55.138476 v -39.927861 c 0,-22.435656 -11.40796,-37.646272 -33.84362,-42.209452 18.25274,-6.46451 28.13964,-20.9146 28.13964,-41.44893 v -31.18175 c 0,-35.74495 -19.7738,-55.13848 -55.89901,-55.13848 H 616.03247 Z M 733.1542,-197.02639 c 9.8869,0 14.83035,4.56318 14.83035,14.06982 v 38.4068 c 0,8.7461 -4.94345,13.30928 -14.06982,13.30928 h -68.44776 v -65.7859 z m 6.08424,107.234827 c 9.50664,0 14.45009,4.563185 14.45009,13.689553 v 46.012107 c 0,9.886899 -4.94345,14.450084 -14.83035,14.450084 h -73.39121 v -74.151744 z" />
    <path
       inkscape:connector-curvature="0"
       id="path1412"
       style="font-style:normal;font-variant:normal;font-weight:600;font-stretch:normal;font-size:medium;line-height:1.25;font-family:'Shentox TRIAL';-inkscape-font-specification:'Shentox TRIAL Semi-Bold';letter-spacing:0px;word-spacing:0px;fill:#148df6;fill-opacity:1;stroke:none;stroke-width:5.9416461"
       d="m 975.50802,27.710431 c 36.12518,0 55.89898,-19.7737986 55.89898,-55.899007 V -184.47763 c 0,-36.12521 -19.7738,-55.89901 -55.89898,-55.89901 h -74.91228 c -36.12521,0 -55.899,19.7738 -55.899,55.89901 v 156.289054 c 0,36.1252084 19.77379,55.899007 55.899,55.899007 z M 894.13123,-183.33684 c 0,-9.8869 4.94345,-14.83035 14.83035,-14.83035 h 58.1806 c 9.8869,0 14.83035,4.94345 14.83035,14.83035 v 154.007468 c 0,9.506634 -4.94345,14.830349 -14.83035,14.830349 h -58.1806 c -9.50663,0 -14.83035,-5.323715 -14.83035,-15.210614 z" />
    <path
       inkscape:connector-curvature="0"
       id="path1414"
       style="font-style:normal;font-variant:normal;font-weight:600;font-stretch:normal;font-size:medium;line-height:1.25;font-family:'Shentox TRIAL';-inkscape-font-specification:'Shentox TRIAL Semi-Bold';letter-spacing:0px;word-spacing:0px;fill:#148df6;fill-opacity:1;stroke:none;stroke-width:5.9416461"
       d="m 1208.7176,27.710431 c 36.1252,0 55.899,-19.7737986 55.899,-55.899007 V -184.47763 c 0,-36.12521 -19.7738,-55.89901 -55.899,-55.89901 h -74.9123 c -36.1252,0 -55.899,19.7738 -55.899,55.89901 v 156.289054 c 0,36.1252084 19.7738,55.899007 55.899,55.899007 z m -81.3768,-211.047271 c 0,-9.8869 4.9435,-14.83035 14.8304,-14.83035 h 58.1806 c 9.8869,0 14.8303,4.94345 14.8303,14.83035 v 154.007468 c 0,9.506634 -4.9434,14.830349 -14.8303,14.830349 h -58.1806 c -9.5067,0 -14.8304,-5.323715 -14.8304,-15.210614 z" />
    <path
       inkscape:connector-curvature="0"
       id="path1416"
       style="font-style:normal;font-variant:normal;font-weight:600;font-stretch:normal;font-size:medium;line-height:1.25;font-family:'Shentox TRIAL';-inkscape-font-specification:'Shentox TRIAL Semi-Bold';letter-spacing:0px;word-spacing:0px;fill:#148df6;fill-opacity:1;stroke:none;stroke-width:5.9416461"
       d="m 1397.4362,-89.791563 49.0542,56.279272 c 4.1829,4.563184 5.704,7.985573 5.704,16.731676 v 42.969984 h 49.4345 v -52.476618 c 0,-12.929022 -4.183,-19.013268 -8.3659,-23.956717 l -52.4766,-60.462194 49.8148,-48.2937 c 5.3237,-5.32371 10.2671,-14.45008 10.2671,-26.61857 v -53.23715 h -47.1529 v 44.49105 c 0,7.6053 -1.1408,13.30928 -5.7039,17.4922 l -46.3924,45.63184 h -37.266 v -107.61509 h -49.4345 V 26.189369 h 49.4345 V -89.791563 Z" />
  </g>
</svg>
