<?xml version="1.0" encoding="UTF-8" standalone="no"?>
<!-- Created with Inkscape (http://www.inkscape.org/) -->

<svg
   xmlns:dc="http://purl.org/dc/elements/1.1/"
   xmlns:cc="http://creativecommons.org/ns#"
   xmlns:rdf="http://www.w3.org/1999/02/22-rdf-syntax-ns#"
   xmlns:svg="http://www.w3.org/2000/svg"
   xmlns="http://www.w3.org/2000/svg"
   xmlns:sodipodi="http://sodipodi.sourceforge.net/DTD/sodipodi-0.dtd"
   xmlns:inkscape="http://www.inkscape.org/namespaces/inkscape"
   width="610.98877mm"
   height="337.80786mm"
   viewBox="0 0 610.98877 337.80786"
   version="1.1"
   id="svg8"
   inkscape:version="0.92.3 (2405546, 2018-03-11)"
   sodipodi:docname="royalpickslogo.svg">
  <defs
     id="defs2" />
  <sodipodi:namedview
     id="base"
     pagecolor="#ffffff"
     bordercolor="#666666"
     borderopacity="1.0"
     inkscape:pageopacity="0.0"
     inkscape:pageshadow="2"
     inkscape:zoom="0.04375"
     inkscape:cx="4746.5976"
     inkscape:cy="5036.1526"
     inkscape:document-units="mm"
     inkscape:current-layer="layer1"
     showgrid="false"
     inkscape:pagecheckerboard="true"
     showguides="true"
     inkscape:guide-bbox="true"
     inkscape:snap-global="true"
     inkscape:snap-bbox="true"
     inkscape:bbox-paths="true"
     inkscape:bbox-nodes="true"
     inkscape:snap-bbox-edge-midpoints="true"
     inkscape:snap-bbox-midpoints="true"
     inkscape:window-width="1259"
     inkscape:window-height="981"
     inkscape:window-x="-8"
     inkscape:window-y="0"
     inkscape:window-maximized="0"
     fit-margin-top="0"
     fit-margin-left="0"
     fit-margin-right="0"
     fit-margin-bottom="0" />
  <metadata
     id="metadata5">
    <rdf:RDF>
      <cc:Work
         rdf:about="">
        <dc:format>image/svg+xml</dc:format>
        <dc:type
           rdf:resource="http://purl.org/dc/dcmitype/StillImage" />
        <dc:title />
      </cc:Work>
    </rdf:RDF>
  </metadata>
  <g
     inkscape:label="Layer 1"
     inkscape:groupmode="layer"
     id="layer1"
     transform="translate(210.21765,107.23328)">
    <rect
       style="opacity:1;fill:#000000;fill-opacity:1;stroke:none;stroke-width:95.3054657;stroke-linecap:square;stroke-linejoin:round;stroke-miterlimit:4;stroke-dasharray:none;stroke-dashoffset:151.18110657;stroke-opacity:1;paint-order:stroke fill markers"
       id="rect920"
       width="513.76923"
       height="221.00618"
       x="-167.66272"
       y="9.5684052" />
    <path
       inkscape:connector-curvature="0"
       id="path850"
       style="font-style:normal;font-variant:normal;font-weight:normal;font-stretch:normal;font-size:medium;line-height:1.25;font-family:'Goblin One';-inkscape-font-specification:'Goblin One';letter-spacing:0px;word-spacing:0px;fill:#ffffff;fill-opacity:1;stroke:none;stroke-width:24;stroke-linejoin:round;stroke-miterlimit:4;stroke-dasharray:none;stroke-opacity:1;paint-order:stroke fill markers"
       d="m 65.685022,203.7582 27.048266,-53.86681 c 1.67102,-11.52868 -6.724629,-11.16035 -12.346873,-14.06971 h 51.001375 l 5.90909,14.58654 24.23433,53.23512 c 3.85167,9.96846 9.11892,13.80277 15.10339,14.52912 h -60.29869 c 8.13537,-1.33773 15.57756,-3.28198 12.51916,-14.41426 l -2.46938,-6.02987 H 88.483666 l -2.699084,6.02987 c -2.251604,7.368 -2.847945,10.42442 5.898306,14.41426 H 48.80139 c 9.175015,-3.83735 15.534166,-8.44267 16.883632,-14.41426 z M 121.5618,185.72602 108.41095,153.33701 93.881838,185.72602 Z"
       sodipodi:nodetypes="ccccccccccccccccccc" />
    <path
       inkscape:connector-curvature="0"
       id="path848"
       style="font-style:normal;font-variant:normal;font-weight:normal;font-stretch:normal;font-size:medium;line-height:1.25;font-family:'Goblin One';-inkscape-font-specification:'Goblin One';letter-spacing:0px;word-spacing:0px;fill:#ffffff;fill-opacity:1;stroke:none;stroke-width:24;stroke-linejoin:round;stroke-miterlimit:4;stroke-dasharray:none;stroke-opacity:1;paint-order:stroke fill markers"
       d="m -53.821226,203.58592 v -53.1777 c 0.485683,-8.71408 -7.701156,-12.22465 -17.802468,-14.58654 3.598779,-0.0383 7.331554,-0.0765 11.198327,-0.11485 3.866773,-0.0383 7.714403,-0.0574 11.54289,-0.0574 3.828488,-0.0383 7.561264,-0.0765 11.198327,-0.11485 3.637063,-0.0383 7.044417,-0.0574 10.222062,-0.0574 3.21593,-0.0383 6.125581,-0.0574 8.728953,-0.0574 h 6.489286 c 3.6370644,0 7.4464104,0.0766 11.4280374,0.22971 3.9816268,0.15314 7.8866848,0.4977 11.7151716,1.03369 3.866773,0.49772 7.522979,1.26341 10.968618,2.2971 3.483924,0.99541 6.527572,2.35453 9.130943,4.07734 2.641657,1.68453 4.728183,3.7902 6.259578,6.317 1.56968,2.48852 2.35452,5.49388 2.35452,9.01609 0,2.67994 -0.478561,5.09189 -1.435683,7.23584 -0.957122,2.14395 -2.335378,4.0582 -4.134767,5.74273 -1.761105,1.68453 -3.905058,3.1585 -6.43186,4.42191 -2.526802,1.2634 -5.34074,2.35452 -8.441815,3.27335 2.411948,0.34457 4.670755,1.16769 6.776423,2.46938 2.143953,1.2634 4.00077,2.87136 5.57045,4.82389 1.56968,1.95253 2.794796,4.21134 3.675348,6.77643 0.918837,2.56509 1.378256,5.3216 1.378256,8.26953 v 3.33078 c -0.361456,6.99079 5.09514,11.43619 16.137076,13.438 H -3.8020326 c 5.3994348,-1.58756 9.0128048,-4.96118 8.7289518,-12.23202 v -7.06356 c 0,-1.99081 -0.287136,-3.80935 -0.861409,-5.4556 -0.574273,-1.68453 -1.359113,-3.12022 -2.35452,-4.30705 -0.995407,-1.22511 -2.1630958,-2.16309 -3.5030668,-2.81394 -1.301686,-0.68913 -2.679942,-1.03369 -4.134767,-1.03369 H -23.55703 v 18.31932 c 0.730734,5.02301 -1.76664,10.2359 10.394344,14.58654 h -58.518436 c 8.793395,-0.88607 16.134869,-3.80484 17.859896,-14.58663 z m 38.648584,-29.57507 c 4.019913,0 7.5229794,-0.17228 10.5091994,-0.51684 2.986221,-0.34456 5.4555948,-0.99541 7.4081238,-1.95254 1.990814,-0.95711 3.464782,-2.27794 4.421904,-3.96247 0.957122,-1.68453 1.435683,-3.84764 1.435683,-6.4893 0,-2.0291 -0.344564,-3.77106 -1.033692,-5.22587 -0.689128,-1.45484 -1.627107,-2.6608 -2.813938,-3.61793 -1.186832,-0.99541 -2.58423,-1.78024 -4.192195,-2.35451 -1.5696798,-0.61257 -3.2350718,-1.05285 -4.9961758,-1.32083 -1.761105,-0.30629 -3.560494,-0.49772 -5.398168,-0.57428 -1.8376744,-0.11485 -3.6179214,-0.17228 -5.3407414,-0.17228 h -8.384388 v 26.18685 z"
       sodipodi:nodetypes="cccccccsssccccssccccccsccccscccscccccsccsscccccsccs" />
    <rect
       style="opacity:1;fill:#000000;fill-opacity:1;stroke:none;stroke-width:137.30993652;stroke-linecap:square;stroke-linejoin:round;stroke-miterlimit:4;stroke-dasharray:none;stroke-dashoffset:151.18110657;stroke-opacity:1;paint-order:stroke fill markers"
       id="rect922"
       width="104.41379"
       height="109.10126"
       x="296.35733"
       y="65.578148" />
    <path
       inkscape:connector-curvature="0"
       id="path874"
       style="font-style:normal;font-variant:normal;font-weight:normal;font-stretch:normal;font-size:medium;line-height:1.25;font-family:'Goblin One';-inkscape-font-specification:'Goblin One';letter-spacing:0px;word-spacing:0px;fill:#9ae200;fill-opacity:1;stroke:#000000;stroke-width:24;stroke-linecap:round;stroke-linejoin:round;stroke-miterlimit:4;stroke-dasharray:none;stroke-opacity:1;paint-order:stroke fill markers"
       d="m -67.239767,65.578149 q 0,-8.044165 2.331642,-14.45618 2.389933,-6.412016 6.412015,-11.308464 4.022083,-4.896449 9.443151,-8.335621 5.421068,-3.497463 11.483337,-5.654232 6.12056,-2.21506 12.590867,-3.206008 6.470307,-1.049239 12.649158,-1.049239 6.7617623,0 13.4652332,1.049239 6.761762,0.990948 12.8240318,3.206008 6.12056,2.156769 11.366755,5.654232 5.246194,3.439172 9.093404,8.335621 3.9055,4.896448 6.062269,11.308464 2.21506,6.412015 2.21506,14.45618 0,7.927583 -2.273351,14.281308 -2.273351,6.353725 -6.237143,11.250173 -3.963791,4.896448 -9.326568,8.393911 -5.304486,3.497459 -11.425046,5.770819 -6.0622693,2.27335 -12.70744918,3.32259 -6.58688882,1.04923 -13.05719582,1.04923 -6.470306,0 -13.057195,-0.99094 -6.586889,-0.99095 -12.70745,-3.14772 -6.062269,-2.15677 -11.425046,-5.595941 -5.304485,-3.439172 -9.268277,-8.335621 -3.9055,-4.896448 -6.178851,-11.308464 -2.273351,-6.470306 -2.273351,-14.689345 z m 34.275138,0 q 0,6.878344 1.515567,12.765741 1.515568,5.829105 4.255247,10.142643 2.73968,4.313537 6.528598,6.761762 3.788918,2.448224 8.33562,2.448224 4.5467023,0 8.3356206,-2.506516 3.78891839,-2.506515 6.5285978,-6.820053 2.7979705,-4.313537 4.3135378,-10.142643 1.5738584,-5.887396 1.5738584,-12.649158 0,-6.820053 -1.4572763,-12.76574 Q 5.507465,46.808431 2.7677856,42.436602 0.08639725,38.006482 -3.7608122,35.499967 -7.6080216,32.93516 -12.329597,32.93516 q -4.546702,0 -8.33562,2.564807 -3.788918,2.506515 -6.528598,6.936635 -2.739679,4.371829 -4.255247,10.375807 -1.515567,5.945687 -1.515567,12.76574 z" />
    <path
       inkscape:connector-curvature="0"
       id="path876"
       style="font-style:normal;font-variant:normal;font-weight:normal;font-stretch:normal;font-size:medium;line-height:1.25;font-family:'Goblin One';-inkscape-font-specification:'Goblin One';letter-spacing:0px;word-spacing:0px;fill:#9ae200;fill-opacity:1;stroke:#000000;stroke-width:24;stroke-linecap:round;stroke-linejoin:round;stroke-miterlimit:4;stroke-dasharray:none;stroke-opacity:1;paint-order:stroke fill markers"
       d="M 90.67068,97.858573 V 81.14186 L 63.099013,37.948191 C 57.308768,29.132839 51.518524,28.1214 45.728279,23.783465 h 57.649851 c -4.61261,2.8464 -11.792547,4.551765 -7.869293,11.191882 l 16.204913,29.087235 13.17378,-28.562615 c 3.94617,-7.868141 -5.35111,-8.378805 -9.55974,-11.716502 h 49.25594 c -7.60004,2.51901 -14.40755,7.019361 -19.99383,14.572763 L 120.22424,81.14186 v 16.716713 c -0.34939,5.725887 4.85889,7.746657 10.44692,9.514257 H 81.273002 c 4.580502,-1.72348 8.785476,-3.82248 9.397678,-9.514257 z"
       sodipodi:nodetypes="cccccccccccccccc" />
    <path
       inkscape:connector-curvature="0"
       id="path878"
       style="font-style:normal;font-variant:normal;font-weight:normal;font-stretch:normal;font-size:medium;line-height:1.25;font-family:'Goblin One';-inkscape-font-specification:'Goblin One';letter-spacing:0px;word-spacing:0px;fill:#9ae200;fill-opacity:1;stroke:#000000;stroke-width:24;stroke-linecap:round;stroke-linejoin:round;stroke-miterlimit:4;stroke-dasharray:none;stroke-opacity:1;paint-order:stroke fill markers"
       d="m 174.78468,92.741779 27.45509,-54.677006 c 2.17716,-8.573251 -4.80453,-11.651186 -12.53258,-14.281308 h 51.38378 l 6.38265,14.805927 24.59883,54.035805 c 5.11018,11.057063 10.22036,11.063133 15.33054,14.747633 h -61.2056 c 6.96646,-2.89109 16.28542,-4.07128 12.70745,-14.631051 l -2.50652,-6.12056 h -38.47209 l -2.73968,6.12056 c -3.94953,9.640041 9.81445,10.423321 16.72953,14.631051 h -54.26897 c 10.57542,-2.09822 13.33094,-8.664953 17.13757,-14.631051 z m 56.7172,-18.30339 -13.34865,-32.876153 -14.74764,32.876153 z"
       sodipodi:nodetypes="ccccccccccccccccccc" />
    <rect
       style="opacity:1;fill:#000000;fill-opacity:1;stroke:none;stroke-width:36.67816544;stroke-linecap:square;stroke-linejoin:round;stroke-miterlimit:4;stroke-dasharray:none;stroke-dashoffset:151.18110657;stroke-opacity:1;paint-order:stroke fill markers"
       id="rect940"
       width="18.114498"
       height="66.132423"
       x="344.35831"
       y="9.5684052" />
    <path
       inkscape:connector-curvature="0"
       id="path880"
       style="font-style:normal;font-variant:normal;font-weight:normal;font-stretch:normal;font-size:medium;line-height:1.25;font-family:'Goblin One';-inkscape-font-specification:'Goblin One';letter-spacing:0px;word-spacing:0px;fill:#9ae200;fill-opacity:1;stroke:#000000;stroke-width:24;stroke-linecap:butt;stroke-linejoin:bevel;stroke-miterlimit:4;stroke-dasharray:none;stroke-opacity:1;paint-order:stroke fill markers"
       d="M 303.31646,92.566906 V 38.589392 c -0.0786,-10.316618 -9.85541,-10.935071 -16.37979,-14.805927 h 69.30806 c -7.48456,4.486543 -16.51565,0.467132 -22.20889,14.805927 v 55.43479 h 30.89426 c 16.4555,0.414649 21.35223,-9.078228 23.84104,-20.635032 v 33.98368 H 286.93667 c 14.76017,-3.19151 17.65915,-8.606999 16.37979,-14.805924 z"
       sodipodi:nodetypes="ccccccccccc" />
    <rect
       style="opacity:1;fill:#000000;fill-opacity:1;stroke:none;stroke-width:44.32337189;stroke-linecap:square;stroke-linejoin:round;stroke-miterlimit:4;stroke-dasharray:none;stroke-dashoffset:151.18110657;stroke-opacity:1;paint-order:stroke fill markers"
       id="rect942-5"
       width="75.210739"
       height="93.262474"
       x="-162.71315"
       y="33.472244" />
    <rect
       style="opacity:1;fill:#000000;fill-opacity:1;stroke:none;stroke-width:18.92276573;stroke-linecap:square;stroke-linejoin:round;stroke-miterlimit:4;stroke-dasharray:none;stroke-dashoffset:151.18110657;stroke-opacity:1;paint-order:stroke fill markers"
       id="rect942"
       width="85.109871"
       height="15.021399"
       x="-210.21765"
       y="9.5684052" />
    <path
       inkscape:connector-curvature="0"
       id="path846"
       style="font-style:normal;font-variant:normal;font-weight:normal;font-stretch:normal;font-size:medium;line-height:1.25;font-family:'Goblin One';-inkscape-font-specification:'Goblin One';letter-spacing:0px;word-spacing:0px;fill:#ffffff;fill-opacity:1;stroke:#000000;stroke-width:24;stroke-linejoin:round;stroke-miterlimit:4;stroke-dasharray:none;stroke-opacity:1;paint-order:stroke fill markers"
       d="m -177.63452,203.58592 v -53.1777 c 0.78202,-9.33963 -8.1973,-12.1717 -17.80247,-14.58654 2.94793,-0.0383 6.317,-0.0574 10.10721,-0.0574 3.7902,-0.0383 7.73354,-0.0765 11.83003,-0.11486 4.13477,-0.0383 8.28867,-0.0574 12.46172,-0.0574 4.21134,-0.0383 8.17383,-0.0574 11.88746,-0.0574 3.71363,-0.0383 7.06356,-0.0574 10.04978,-0.0574 2.98622,-0.0383 5.34074,-0.0574 7.06356,-0.0574 6.73814,0 12.80629,0.34456 18.20446,1.03369 5.39817,0.68913 10.14549,1.85682 14.241972,3.50307 3.63707,1.45483 6.77643,3.34993 9.41808,5.6853 2.641658,2.29709 4.804754,4.91961 6.489289,7.86755 1.722819,2.94793 2.98622,6.16386 3.790203,9.64779 0.803983,3.48392 1.205974,7.14012 1.205974,10.96861 0,7.08272 -1.339971,13.38058 -4.019913,18.89359 -2.641656,5.51302 -6.412713,10.16463 -11.313183,13.95484 -4.86218,3.7902 -10.719772,6.68071 -17.572762,8.67152 -6.81471,1.95253 -14.39511,2.9288 -22.74121,2.9288 h -5.4556 c -2.48852,0 -5.43646,-0.0191 -8.84381,-0.0574 -3.36907,0 -7.06356,-0.0191 -11.08347,-0.0574 -4.01991,-0.0383 -8.11639,-0.0765 -12.28944,-0.11485 -4.17305,0 -8.28868,-0.0191 -12.34688,-0.0574 -4.01991,-0.0383 -7.73355,-0.0766 -11.1409,-0.11485 12.22408,-1.00331 18.7341,-5.52296 17.8599,-14.58676 z m 41.51995,2.58423 c 4.74733,0 8.70981,-0.7657 11.88745,-2.2971 3.17765,-1.53139 5.72359,-3.67535 7.63784,-6.43186 1.91424,-2.79479 3.27335,-6.10643 4.07734,-9.93492 0.80398,-3.86677 1.20597,-8.13554 1.20597,-12.80629 0,-4.28791 -0.53599,-8.09725 -1.60797,-11.42804 -1.07197,-3.33079 -2.62251,-6.14472 -4.65161,-8.44181 -2.0291,-2.29709 -4.51762,-4.03906 -7.46555,-5.22589 -2.90965,-1.18683 -6.22129,-1.78025 -9.93492,-1.78025 h -12.40431 v 58.34616 z"
       sodipodi:nodetypes="ccccccccsccccsscccsscsccccscccscccsccs" />
    <path
       inkscape:connector-curvature="0"
       id="path872"
       style="font-style:normal;font-variant:normal;font-weight:normal;font-stretch:normal;font-size:medium;line-height:1.25;font-family:'Goblin One';-inkscape-font-specification:'Goblin One';letter-spacing:0px;word-spacing:0px;fill:#9ae200;fill-opacity:1;stroke:#000000;stroke-width:24;stroke-linecap:round;stroke-linejoin:round;stroke-miterlimit:4;stroke-dasharray:none;stroke-opacity:1;paint-order:stroke fill markers"
       d="M -180.14953,87.27524 V 38.589392 l -18.07023,-14.805927 c 3.65291,-0.03886 7.44183,-0.07772 11.36676,-0.116582 3.92493,-0.03886 7.83043,-0.05829 11.7165,-0.05829 3.88607,-0.03886 7.67498,-0.07772 11.36675,-0.116582 3.69177,-0.03886 7.15037,-0.05829 10.37581,-0.05829 3.2643,-0.03886 6.21771,-0.05829 8.86024,-0.05829 h 6.58689 c 3.69177,0 7.55841,0.07772 11.59992,0.233164 4.04151,0.155443 8.0053,0.505189 11.89137,1.049239 3.92493,0.505189 7.63613,1.282403 11.1336,2.331642 3.536321,1.010379 6.625745,2.389934 9.268273,4.138665 2.681388,1.709871 4.799296,3.847209 6.353724,6.412016 1.593289,2.525945 2.389933,5.57651 2.389933,9.151695 0,2.720249 -0.485759,5.168473 -1.457276,7.344672 -0.971517,2.176199 -2.370503,4.119234 -4.196956,5.829105 -1.787592,1.709871 -3.963791,3.206008 -6.528598,4.488411 -2.56481,1.282403 -5.42107,2.389933 -8.56878,3.32259 2.44822,0.349747 4.741,1.185252 6.87834,2.506515 2.176199,1.282403 4.060943,2.914553 5.654232,4.896449 1.593289,1.981895 2.836831,4.274677 3.730627,6.878344 0.932657,2.603667 1.398986,5.401637 1.398986,8.393911 v 8.672548 c 0,32.542423 -28.808625,44.406523 -57.703555,43.689203 -14.80122,-0.94508 -32.85135,-13.58546 -32.79655,-24.00576 0.21283,-13.91399 7.96897,-15.15083 14.67433,-15.32785 9.75681,0.40049 13.11818,7.71429 13.26149,12.47891 -5.21925,-1.65642 -7.52004,7.02898 -1.4709,9.84578 13.56174,6.62964 40.544,6.65741 42.50011,-25.45617 2.13808,-14.267036 -7.29016,-25.628475 -21.60034,-26.276449 h -17.89536 V 87.27524 l 10.55068,9.514257 h -54.10691 z m 39.22988,-24.728225 c 4.08037,0 7.63613,-0.174873 10.66726,-0.52462 3.03113,-0.349746 5.53765,-1.010378 7.51955,-1.981896 2.02075,-0.971517 3.51689,-2.312211 4.48841,-4.022082 0.97151,-1.709871 1.45727,-3.9055 1.45727,-6.586889 0,-2.059617 -0.34975,-3.827779 -1.04924,-5.304486 -0.69949,-1.476707 -1.65158,-2.700819 -2.85626,-3.672336 -1.20468,-1.010378 -2.62309,-1.807022 -4.25524,-2.389933 -1.59329,-0.621771 -3.28374,-1.068669 -5.07133,-1.340694 -1.78759,-0.310886 -3.61404,-0.50519 -5.47936,-0.582911 -1.86531,-0.116582 -3.67233,-0.174873 -5.42106,-0.174873 h -8.5105 v 26.58072 z"
       sodipodi:nodetypes="cccscscsssccccsscsccscscccccccccccccssccssccccsccs" />
    <path
       style="fill:#ee9514;fill-opacity:1;fill-rule:nonzero;stroke:#000000;stroke-width:24;stroke-linejoin:round;stroke-miterlimit:4;stroke-dasharray:none;stroke-opacity:1;paint-order:stroke fill markers"
       d="m 103.12453,-95.286056 c -10e-4,0.0015 -13.339577,14.040433 -12.869485,18.017894 0.467782,3.977609 10.529455,11.468755 9.827155,14.275693 v 8.189571 c 0,0 -0.233995,-18.252848 -12.870216,-16.379519 -13.244907,1.960847 -8.191436,16.846533 -0.702916,16.61433 0,0 -0.701273,-9.361728 4.679915,-9.361728 5.382567,0 5.224522,11.232633 5.224522,11.232633 h -3.586531 v 3.744086 h 6.553451 c 0,0 2.226935,10.288159 -2.822242,16.462462 0,-8.665177 -6.751201,-10.029045 -7.913101,-10.029045 -2.769883,0 -5.015848,2.245076 -5.015848,5.014333 0,2.770478 2.245965,5.016982 5.015848,5.016982 1.120681,0 2.150818,-0.373031 2.98474,-0.993019 -1.860533,5.370759 -4.884169,5.526291 -4.922681,5.527507 -5.207725,0.26014 -9.219332,-2.240623 -11.681047,-4.411779 1.534797,-0.858247 2.574581,-2.497971 2.574581,-4.382238 0,-2.768036 -2.245306,-5.014712 -5.014711,-5.014712 -2.770811,0 -5.015848,2.246676 -5.015848,5.014712 0,2.415498 1.707038,4.430914 3.980789,4.908666 -1.001098,3.741779 -3.356373,9.190574 -8.678127,9.798399 -1.655838,0.188428 -3.28387,0.16297 -4.861326,-0.128766 0.0066,-0.0023 0.01042,-0.0062 0.02083,-0.01022 0,0 -3.053253,-0.125066 -4.925709,-5.52864 0.834771,0.619988 1.864624,0.991883 2.98436,0.991883 2.77085,0 5.016984,-2.24537 5.016984,-5.015847 0,-2.769251 -2.246134,-5.015848 -5.016984,-5.015848 -1.054216,0 -6.686198,1.140317 -7.730934,7.814254 -2.105994,-3.074381 -3.932649,-7.308322 -5.375257,-12.996362 h 3.276738 l 0.232538,-3.744462 h -3.509276 c 0,0 -0.70274,-12.873771 5.615371,-11.701876 6.318976,1.169459 4.446913,5.847347 3.276358,6.551203 0,0 9.074881,1.069795 7.489685,-8.892487 -1.640645,-10.295446 -18.488551,-9.125915 -19.191939,8.892487 l -1.870149,-6.786013 c 0,0 7.019436,-7.486982 6.317529,-11.699224 -0.702803,-4.212236 -19.657014,-11.469715 -19.657014,-11.469715 l 22.512228,76.9847604 c 0.120271,-0.034115 0.243823,-0.058324 0.375316,-0.058324 h 55.272403 v 3.787e-4 3.786e-4 h 55.66706 v -3.786e-4 l 22.49556,-76.9264451 c 0,0 -18.95446,7.257479 -19.65588,11.469715 -0.70387,4.212236 6.31753,11.699604 6.31753,11.699604 l -1.87204,6.785633 c -0.70267,-18.018402 -17.55043,-19.187845 -19.19156,-8.892485 -1.58279,9.962274 7.48968,8.892485 7.48968,8.892485 -1.16946,-0.703855 -3.04141,-5.381747 3.27636,-6.5512 6.31895,-1.171892 5.61726,11.701874 5.61726,11.701874 h -3.50927 l 0.23216,3.744084 h 3.2775 c -1.44541,5.68804 -3.27155,9.922358 -5.37829,12.996741 -1.04304,-6.673937 -6.67508,-7.814253 -7.72904,-7.814253 -2.77048,0 -5.01585,2.246589 -5.01585,5.015847 0,2.770466 2.24537,5.015845 5.01585,5.015845 1.12082,0 2.14912,-0.372268 2.98549,-0.99226 -1.87208,5.403579 -4.92798,5.52902 -4.92798,5.52902 0.007,0.0041 0.0136,0.0067 0.0204,0.0099 -1.57788,0.291776 -3.20569,0.317595 -4.86019,0.129144 -5.32212,-0.607831 -7.68035,-6.056608 -8.67964,-9.798399 2.27328,-0.477752 3.98003,-2.493162 3.98003,-4.908666 0,-2.768036 -2.24538,-5.014711 -5.01585,-5.014711 -2.77047,0 -5.01433,2.246675 -5.01433,5.014711 0,1.884257 1.04037,3.523979 2.57571,4.382238 -2.4641,2.171163 -6.47311,4.671927 -11.68218,4.411779 -0.0375,-5.8e-4 -3.06105,-0.156754 -4.92344,-5.527507 0.83516,0.619983 1.86711,0.993021 2.98549,0.993021 2.77047,0 5.01586,-2.246511 5.01586,-5.016983 0,-2.769262 -2.24539,-5.014712 -5.01586,-5.014712 -1.16335,0 -7.91147,1.364246 -7.91272,10.029423 -5.04969,-6.174303 -2.82265,-16.462462 -2.82265,-16.462462 h 6.55348 v -3.744084 h -3.58615 c 0,0 -0.15815,-11.232635 5.2249,-11.232635 5.38292,0 4.67916,9.361729 4.67916,9.361729 7.48847,0.232196 12.54317,-14.653468 -0.7014,-16.614331 -12.63674,-1.873219 -12.87101,16.37952 -12.87101,16.37952 v -8.18957 c -0.70276,-2.806946 9.36031,-10.298086 9.82833,-14.275702 0.46923,-3.977623 -12.87253,-18.018268 -12.87253,-18.018268 z"
       id="path72"
       inkscape:connector-curvature="0" />
    <path
       style="fill:#ee9514;fill-opacity:1;fill-rule:nonzero;stroke:#000000;stroke-width:24;stroke-miterlimit:4;stroke-dasharray:none;stroke-opacity:1;paint-order:stroke fill markers"
       d="m 48.244488,-1.1658274 2.929067,10.0169213 h 51.950975 51.95327 l 2.92944,-10.0169213 h -54.88271 z"
       id="path74"
       inkscape:connector-curvature="0" />
    <path
       inkscape:connector-curvature="0"
       id="path852"
       style="font-style:normal;font-variant:normal;font-weight:normal;font-stretch:normal;font-size:medium;line-height:1.25;font-family:'Goblin One';-inkscape-font-specification:'Goblin One';letter-spacing:0px;word-spacing:0px;fill:#ffffff;fill-opacity:1;stroke:none;stroke-width:24;stroke-linejoin:round;stroke-miterlimit:4;stroke-dasharray:none;stroke-opacity:1;paint-order:stroke fill markers"
       d="m 192.31225,203.58592 v -53.1777 c 0.75143,-10.99263 -8.81518,-11.66723 -16.13708,-14.58654 H 282.8177 v 26.45833 c -0.73589,-11.98736 -9.02139,-11.86074 -24.06205,-13.30747 h -36.17921 v 24.75117 h 12.14923 c 16.72963,0.91932 22.89518,-3.69491 24.71911,-10.58333 v 33.80067 c 0.79839,-9.79208 -11.23104,-10.60469 -24.45184,-10.58332 h -12.4165 v 17.22819 c 0.0298,7.82528 1.72137,14.5081 13.0193,14.58654 h -59.42057 c 7.91562,-1.74021 17.1215,-1.89241 16.13708,-14.58654 z"
       sodipodi:nodetypes="ccccccccccccccccc" />
    <rect
       style="opacity:1;fill:#000000;fill-opacity:1;stroke:none;stroke-width:19.79854393;stroke-linecap:round;stroke-linejoin:round;stroke-miterlimit:4;stroke-dasharray:none;stroke-dashoffset:151.18110657;stroke-opacity:1;paint-order:stroke fill markers"
       id="rect889"
       width="28.365221"
       height="12.402122"
       x="346.10651"
       y="218.17245" />
    <path
       inkscape:connector-curvature="0"
       id="path854"
       style="font-style:normal;font-variant:normal;font-weight:normal;font-stretch:normal;font-size:medium;line-height:1.25;font-family:'Goblin One';-inkscape-font-specification:'Goblin One';letter-spacing:0px;word-spacing:0px;fill:#ffffff;fill-opacity:1;stroke:#000000;stroke-width:24;stroke-linejoin:round;stroke-miterlimit:4;stroke-dasharray:none;stroke-opacity:1;paint-order:stroke fill markers"
       d="m 323.87825,203.64334 v -56.33618 h -11.54289 c -12.31744,-0.0762 -22.58703,1.29316 -22.9135,9.6812 v -21.16668 h 34.16926 l 0.28713,0.22972 v -0.22972 h 64.89287 v 26.45833 c -0.16435,-15.15283 -10.5453,-14.36865 -23.48777,-14.97286 h -11.1409 v 56.33619 c -0.079,7.94537 1.18012,14.99523 20.32927,14.52912 h -70.23361 c 12.7551,-0.22655 20.75113,-3.99189 19.64014,-14.52912 z"
       sodipodi:nodetypes="cccccccccccccccc" />
  </g>
</svg>
