<?xml version="1.0" encoding="UTF-8" standalone="no"?>
<!-- Created with Inkscape (http://www.inkscape.org/) -->

<svg
   xmlns:dc="http://purl.org/dc/elements/1.1/"
   xmlns:cc="http://creativecommons.org/ns#"
   xmlns:rdf="http://www.w3.org/1999/02/22-rdf-syntax-ns#"
   xmlns:svg="http://www.w3.org/2000/svg"
   xmlns="http://www.w3.org/2000/svg"
   xmlns:sodipodi="http://sodipodi.sourceforge.net/DTD/sodipodi-0.dtd"
   xmlns:inkscape="http://www.inkscape.org/namespaces/inkscape"
   width="116.369mm"
   height="116.39315mm"
   viewBox="0 0 116.36901 116.39315"
   version="1.1"
   id="svg1382"
   inkscape:version="0.92.3 (2405546, 2018-03-11)"
   sodipodi:docname="NOP.svg">
  <defs
     id="defs1376" />
  <sodipodi:namedview
     id="base"
     pagecolor="#ffffff"
     bordercolor="#666666"
     borderopacity="1.0"
     inkscape:pageopacity="0.0"
     inkscape:pageshadow="2"
     inkscape:zoom="0.35"
     inkscape:cx="125.52272"
     inkscape:cy="338.56611"
     inkscape:document-units="mm"
     inkscape:current-layer="layer1"
     showgrid="false"
     inkscape:pagecheckerboard="true"
     fit-margin-top="0"
     fit-margin-left="0"
     fit-margin-right="0"
     fit-margin-bottom="0"
     inkscape:window-width="1920"
     inkscape:window-height="991"
     inkscape:window-x="-9"
     inkscape:window-y="-9"
     inkscape:window-maximized="1" />
  <metadata
     id="metadata1379">
    <rdf:RDF>
      <cc:Work
         rdf:about="">
        <dc:format>image/svg+xml</dc:format>
        <dc:type
           rdf:resource="http://purl.org/dc/dcmitype/StillImage" />
        <dc:title></dc:title>
      </cc:Work>
    </rdf:RDF>
  </metadata>
  <g
     inkscape:label="Layer 1"
     inkscape:groupmode="layer"
     id="layer1"
     transform="translate(75.922529,-57.036074)">
    <circle
       style="opacity:1;fill:#002b5c;fill-opacity:1;stroke:none;stroke-width:10;stroke-linecap:round;stroke-linejoin:round;stroke-miterlimit:4;stroke-dasharray:none;stroke-dashoffset:0;stroke-opacity:1"
       id="path7669-8-8-9-0-1-6-1-9-1-9"
       cx="-17.738028"
       cy="115.24472"
       r="58.184502"
       inkscape:export-xdpi="65.480003"
       inkscape:export-ydpi="65.480003" />
    <path
       style="opacity:1;fill:#85714d;fill-opacity:1;stroke:none;stroke-width:8.4565897;stroke-linecap:round;stroke-linejoin:round;stroke-miterlimit:4;stroke-dasharray:none;stroke-dashoffset:0;stroke-opacity:1"
       d="M 1.7879467,78.368422 0.98594771,84.368033 H 20.549549 C 18.79705,82.208502 16.864747,80.201452 14.773147,78.368422 Z m -1.50999799,11.292841 -0.8021,6.000139 H 27.337249 c -0.893701,-2.068589 -1.9285,-4.073369 -3.097001,-6.000139 z m -1.50950101,11.291307 -0.801999,5.99964 H 30.758748 c -0.360899,-2.02849 -0.848799,-4.03233 -1.460899,-5.99964 z m -1.5095,11.2913 -0.802,5.99912 H 31.31585 c 0.081,-0.99768 0.130699,-1.99755 0.150299,-2.99826 -0.01,-1.00113 -0.04,-2.00189 -0.1064,-3.00086 z m -29.1920007,5.99912 -0.802,-5.99912 h -34.0574 c -0.08,0.99854 -0.1304,1.99928 -0.149799,3.00086 0,1.00026 0.04,2.00013 0.1059,2.99826 z m -1.509498,-11.29078 -0.802002,-5.99964 h -30.563999 c -0.583801,1.96918 -1.043801,3.97299 -1.377201,5.99964 z m -1.5094,-11.290808 -0.802,-6.000139 h -23.942801 c -1.1892,1.925051 -2.244101,3.92988 -3.157401,6.000139 z m -1.510001,-11.293369 -0.802,-5.999611 h -12.9579 c -2.091,1.83308 -4.022901,3.84016 -5.7748,5.999611 z"
       id="path7669-8-8-9-0-1-6-1-9-1-9-8-0-7"
       inkscape:connector-curvature="0"
       sodipodi:nodetypes="cccccccccccccccccccccccccccccccccccccccccc"
       inkscape:export-xdpi="176.78"
       inkscape:export-ydpi="176.78" />
    <path
       style="opacity:1;fill:#c8102e;fill-opacity:1;stroke:none;stroke-width:10;stroke-linecap:round;stroke-linejoin:round;stroke-miterlimit:4;stroke-dasharray:none;stroke-dashoffset:0;stroke-opacity:1"
       d="m -17.734053,57.036164 c -6.004399,0.0234 -11.969099,0.92653 -17.682099,2.77463 l 15.1639,113.564086 c 0.838399,0.0602 1.678001,0.0305 2.518199,0.0543 0.8382,-0.0115 1.676101,-0.007 2.513002,-0.0545 L -0.04575329,59.815234 C -5.7631523,57.981754 -11.729853,57.044264 -17.734053,57.036074 Z"
       id="path7669-8-8-9-0-1-6-1-9-1-9-4"
       inkscape:connector-curvature="0"
       sodipodi:nodetypes="ccccccc"
       inkscape:export-xdpi="176.78"
       inkscape:export-ydpi="176.78" />
  </g>
</svg>
