<?xml version="1.0" encoding="UTF-8" standalone="no"?>
<!-- Created with Inkscape (http://www.inkscape.org/) -->

<svg
   xmlns:dc="http://purl.org/dc/elements/1.1/"
   xmlns:cc="http://creativecommons.org/ns#"
   xmlns:rdf="http://www.w3.org/1999/02/22-rdf-syntax-ns#"
   xmlns:svg="http://www.w3.org/2000/svg"
   xmlns="http://www.w3.org/2000/svg"
   xmlns:sodipodi="http://sodipodi.sourceforge.net/DTD/sodipodi-0.dtd"
   xmlns:inkscape="http://www.inkscape.org/namespaces/inkscape"
   width="595.68359mm"
   height="683.34198mm"
   viewBox="0 0 595.68359 683.34198"
   version="1.1"
   id="svg8"
   inkscape:version="0.92.3 (2405546, 2018-03-11)"
   sodipodi:docname="fanbattleslogo_foruse.svg">
  <defs
     id="defs2" />
  <sodipodi:namedview
     id="base"
     pagecolor="#ffffff"
     bordercolor="#666666"
     borderopacity="1.0"
     inkscape:pageopacity="0.0"
     inkscape:pageshadow="2"
     inkscape:zoom="0.021875"
     inkscape:cx="2644.8947"
     inkscape:cy="775.1667"
     inkscape:document-units="mm"
     inkscape:current-layer="layer1"
     showgrid="false"
     showguides="true"
     inkscape:guide-bbox="true"
     inkscape:snap-smooth-nodes="true"
     inkscape:snap-intersection-paths="true"
     inkscape:object-paths="true"
     inkscape:snap-midpoints="true"
     inkscape:snap-global="false"
     inkscape:window-width="1158"
     inkscape:window-height="981"
     inkscape:window-x="752"
     inkscape:window-y="0"
     inkscape:window-maximized="0"
     fit-margin-top="0"
     fit-margin-left="0"
     fit-margin-right="0"
     fit-margin-bottom="0"
     inkscape:pagecheckerboard="true" />
  <metadata
     id="metadata5">
    <rdf:RDF>
      <cc:Work
         rdf:about="">
        <dc:format>image/svg+xml</dc:format>
        <dc:type
           rdf:resource="http://purl.org/dc/dcmitype/StillImage" />
        <dc:title></dc:title>
      </cc:Work>
    </rdf:RDF>
  </metadata>
  <g
     inkscape:label="Layer 1"
     inkscape:groupmode="layer"
     id="layer1"
     transform="translate(1406.7394,669.01258)">
    <path
       inkscape:connector-curvature="0"
       style="color:#000000;font-style:normal;font-variant:normal;font-weight:normal;font-stretch:normal;font-size:medium;line-height:normal;font-family:sans-serif;font-variant-ligatures:normal;font-variant-position:normal;font-variant-caps:normal;font-variant-numeric:normal;font-variant-alternates:normal;font-feature-settings:normal;text-indent:0;text-align:start;text-decoration:none;text-decoration-line:none;text-decoration-style:solid;text-decoration-color:#000000;letter-spacing:normal;word-spacing:normal;text-transform:none;writing-mode:lr-tb;direction:ltr;text-orientation:mixed;dominant-baseline:auto;baseline-shift:baseline;text-anchor:start;white-space:normal;shape-padding:0;clip-rule:nonzero;display:inline;overflow:visible;visibility:visible;opacity:1;isolation:auto;mix-blend-mode:normal;color-interpolation:sRGB;color-interpolation-filters:linearRGB;solid-color:#000000;solid-opacity:1;vector-effect:none;fill:#ffffff;fill-opacity:1;fill-rule:nonzero;stroke:none;stroke-width:104.67736053;stroke-linecap:butt;stroke-linejoin:miter;stroke-miterlimit:4;stroke-dasharray:none;stroke-dashoffset:0;stroke-opacity:1;color-rendering:auto;image-rendering:auto;shape-rendering:auto;text-rendering:auto;enable-background:accumulate"
       d="m -1162.0423,-669.01258 c -5.2674,0 -10.5114,0.0555 -15.7267,0.15876 -69.5376,1.37787 -133.9676,11.50062 -180.2632,24.91541 l -29.6376,8.58832 -6.8358,30.08675 c -26.7513,117.77826 -6.7893,239.49936 32.3983,345.69551 39.1884,106.19627 97.2547,197.254607 157.1131,256.8955901 l 10.55,10.514004 c -2.7198,-57.4257681 -2.9526,-113.0712341 -0.8764,-167.0589041 -20.222,-31.09102 -39.6236,-66.7107 -56.059,-105.14881 h 63.1794 c 3.4879,-35.63187 8.0179,-70.51343 13.5397,-104.67816 h -111.5229 c -14.4705,-60.25247 -19.8029,-122.35928 -11.9039,-180.90139 39.5426,-7.90681 92.7197,-14.06267 148.1188,-13.64596 3.6933,0.0279 7.3959,0.0858 11.1052,0.17307 2.6854,0.0639 5.3682,0.15004 8.0494,0.2453 10.3009,-35.16192 21.7034,-69.5221 34.1402,-103.12569 -21.9272,-1.86615 -43.8414,-2.72426 -65.3669,-2.71366 z m 101.11,6.68958 c -12.4539,33.05059 -23.8853,66.844 -34.2233,101.43795 9.885,0.93637 19.6263,2.11797 29.1167,3.59905 46.528,7.26133 87.04024,21.42092 112.24932,39.6632 24.90553,18.02243 36.63254,35.74302 37.93786,68.5437 -0.26169,14.1961 -10.65405,31.26413 -44.33158,49.1493 -34.11114,18.1156 -86.9816,30.88562 -143.2485,30.88562 h -35.9381 c -5.6394,34.13197 -10.2678,69.01021 -13.8262,104.67815 h 49.7643 c 36.9365,0 59.2139,10.36177 73.2463,23.81746 13.8736,13.30389 21.8789,31.49685 22.0589,57.7917 -1.7359,47.13415 -13.8539,62.55197 -36.3704,75.4821 -19.7006,11.312837 -54.7563,17.306135 -99.1986,16.000811 -5.9236,-6.548968 -11.9335,-13.624141 -17.9734,-21.172181 -0.5485,40.913637 0.2408,82.819446 2.4306,125.769299 60.5814,3.616253 117.8402,-1.668767 166.86962,-29.823556 52.50443,-30.150583 86.53538,-90.572373 88.96216,-163.687033 l 0.0348,-0.8655 v -0.86548 c 0,-41.06008 -12.25667,-80.95073 -36.09869,-113.07353 9.62998,-3.96936 19.43929,-7.73205 28.392,-12.4866 54.0505,-28.70474 100.0227,-77.87585 100.0227,-142.1722 v -0.82403 l -0.0348,-0.82579 c -2.03703,-64.4128 -35.86561,-118.22194 -81.33675,-151.1265 -45.47115,-32.90446 -100.68878,-49.42063 -157.47174,-58.28219 -3.6727,-0.57322 -7.3545,-1.10415 -11.0403,-1.61375 z"
       id="path815-6-4-2-2-3-5" />
  </g>
</svg>
