<?xml version="1.0" encoding="UTF-8" standalone="no"?>
<!-- Created with Inkscape (http://www.inkscape.org/) -->

<svg
   xmlns:dc="http://purl.org/dc/elements/1.1/"
   xmlns:cc="http://creativecommons.org/ns#"
   xmlns:rdf="http://www.w3.org/1999/02/22-rdf-syntax-ns#"
   xmlns:svg="http://www.w3.org/2000/svg"
   xmlns="http://www.w3.org/2000/svg"
   xmlns:sodipodi="http://sodipodi.sourceforge.net/DTD/sodipodi-0.dtd"
   xmlns:inkscape="http://www.inkscape.org/namespaces/inkscape"
   width="116.369mm"
   height="116.36926mm"
   viewBox="0 0 116.369 116.36926"
   version="1.1"
   id="svg1382"
   inkscape:version="0.92.3 (2405546, 2018-03-11)"
   sodipodi:docname="GSW.svg">
  <defs
     id="defs1376" />
  <sodipodi:namedview
     id="base"
     pagecolor="#ffffff"
     bordercolor="#666666"
     borderopacity="1.0"
     inkscape:pageopacity="0.0"
     inkscape:pageshadow="2"
     inkscape:zoom="0.35"
     inkscape:cx="83.385001"
     inkscape:cy="164.8144"
     inkscape:document-units="mm"
     inkscape:current-layer="layer1"
     showgrid="false"
     inkscape:pagecheckerboard="true"
     fit-margin-top="0"
     fit-margin-left="0"
     fit-margin-right="0"
     fit-margin-bottom="0"
     inkscape:window-width="1920"
     inkscape:window-height="991"
     inkscape:window-x="-9"
     inkscape:window-y="-9"
     inkscape:window-maximized="1" />
  <metadata
     id="metadata1379">
    <rdf:RDF>
      <cc:Work
         rdf:about="">
        <dc:format>image/svg+xml</dc:format>
        <dc:type
           rdf:resource="http://purl.org/dc/dcmitype/StillImage" />
        <dc:title></dc:title>
      </cc:Work>
    </rdf:RDF>
  </metadata>
  <g
     inkscape:label="Layer 1"
     inkscape:groupmode="layer"
     id="layer1"
     transform="translate(64.773592,-76.07122)">
    <circle
       style="opacity:1;fill:#1d428a;fill-opacity:1;stroke:none;stroke-width:2;stroke-linecap:round;stroke-linejoin:round;stroke-miterlimit:4;stroke-dasharray:none;stroke-dashoffset:0;stroke-opacity:1"
       id="path7669-8-8-9-0-1-5-0-2-1"
       cx="-6.5890903"
       cy="134.25572"
       r="58.184502"
       inkscape:export-xdpi="65.480003"
       inkscape:export-ydpi="65.480003"
       inkscape:export-filename="C:\Users\Russe\Documents\Gameplai\Design\TeamIcons\Basketball\Crests\GSW.png" />
    <path
       inkscape:connector-curvature="0"
       style="opacity:1;fill:#ffc72c;fill-opacity:1;stroke:none;stroke-width:1.99999988;stroke-linecap:round;stroke-linejoin:round;stroke-miterlimit:4;stroke-dasharray:none;stroke-dashoffset:0;stroke-opacity:1"
       d="m -6.5850705,76.168477 a 113.47219,58.184502 0 0 0 -1.94974,0.03514 V 192.34278 a 58.184502,58.184502 0 0 0 1.94561,0.0977 58.184502,58.184502 0 0 0 1.95493,-0.0692 V 76.218604 a 113.47219,58.184502 0 0 0 -1.9508,-0.05013 z M 12.10319,79.21687 v 110.06356 a 58.184502,58.184502 0 0 0 3.90004,-1.46968 V 80.640556 A 58.184502,58.184502 0 0 0 12.10319,79.21687 Z m -37.37806,0.01188 a 58.184502,58.184502 0 0 0 -3.90054,1.469161 V 187.87328 a 58.184502,58.184502 0 0 0 3.90054,1.4242 z m -20.641121,12.224577 a 58.184502,58.184502 0 0 0 -3.900038,3.950664 v 77.696029 a 58.184502,58.184502 0 0 0 3.900038,3.94033 z m 78.659801,0.02325 v 85.576683 a 58.184502,58.184502 0 0 0 3.90052,-3.95221 V 95.419499 a 58.184502,58.184502 0 0 0 -3.90052,-3.942912 z"
       id="path7669-8-8-9-0-1-5-0-2-1-7" />
  </g>
</svg>
