<?xml version="1.0" encoding="UTF-8" standalone="no"?>
<!-- Created with Inkscape (http://www.inkscape.org/) -->

<svg
   xmlns:dc="http://purl.org/dc/elements/1.1/"
   xmlns:cc="http://creativecommons.org/ns#"
   xmlns:rdf="http://www.w3.org/1999/02/22-rdf-syntax-ns#"
   xmlns:svg="http://www.w3.org/2000/svg"
   xmlns="http://www.w3.org/2000/svg"
   xmlns:sodipodi="http://sodipodi.sourceforge.net/DTD/sodipodi-0.dtd"
   xmlns:inkscape="http://www.inkscape.org/namespaces/inkscape"
   width="799.93964mm"
   height="89.671707mm"
   viewBox="0 0 799.93964 89.671707"
   version="1.1"
   id="svg8"
   inkscape:version="0.92.3 (2405546, 2018-03-11)"
   sodipodi:docname="moneypickslogo.svg">
  <defs
     id="defs2" />
  <sodipodi:namedview
     id="base"
     pagecolor="#ffffff"
     bordercolor="#666666"
     borderopacity="1.0"
     inkscape:pageopacity="0.0"
     inkscape:pageshadow="2"
     inkscape:zoom="0.24748737"
     inkscape:cx="2148.2364"
     inkscape:cy="9.4511835"
     inkscape:document-units="mm"
     inkscape:current-layer="layer1"
     showgrid="false"
     showguides="true"
     inkscape:guide-bbox="true"
     fit-margin-top="0"
     fit-margin-left="0"
     fit-margin-right="0"
     fit-margin-bottom="0"
     inkscape:pagecheckerboard="true"
     inkscape:window-width="1920"
     inkscape:window-height="991"
     inkscape:window-x="-9"
     inkscape:window-y="-9"
     inkscape:window-maximized="1" />
  <metadata
     id="metadata5">
    <rdf:RDF>
      <cc:Work
         rdf:about="">
        <dc:format>image/svg+xml</dc:format>
        <dc:type
           rdf:resource="http://purl.org/dc/dcmitype/StillImage" />
        <dc:title></dc:title>
      </cc:Work>
    </rdf:RDF>
  </metadata>
  <g
     inkscape:label="Layer 1"
     inkscape:groupmode="layer"
     id="layer1"
     transform="translate(446.48006,-339.82855)">
    <path
       inkscape:connector-curvature="0"
       id="path837"
       style="font-style:normal;font-variant:normal;font-weight:900;font-stretch:normal;font-size:medium;line-height:1.25;font-family:Heebo;-inkscape-font-specification:'Heebo Heavy';letter-spacing:0px;word-spacing:0px;fill:#ffffff;fill-opacity:1;stroke:none;stroke-width:1.91683018"
       d="m -407.4838,341.08647 18.14999,57.62471 18.09008,-57.62471 h 18.20989 l -28.93216,87.21578 h -14.79553 l -28.93216,-87.21578 z m -10.48266,0 3.53415,70.44351 v 16.77227 h -22.52275 v -68.89482 l -9.525,-18.32096 z m 76.2539,0 v 87.21578 h -22.58266 v -16.77227 l 3.53416,-70.44351 z"
       sodipodi:nodetypes="ccccccccccccccccccccc" />
    <path
       inkscape:connector-curvature="0"
       id="path839"
       style="font-style:normal;font-variant:normal;font-weight:900;font-stretch:normal;font-size:medium;line-height:1.25;font-family:Heebo;-inkscape-font-specification:'Heebo Heavy';letter-spacing:0px;word-spacing:0px;fill:#ffffff;fill-opacity:1;stroke:none;stroke-width:1.91683018"
       d="m -254.31708,386.01218 q 0,13.53761 -4.97178,23.30147 -4.91188,9.70395 -13.59752,14.97523 -8.68563,5.21138 -19.88711,5.21138 -11.32128,0 -20.06682,-5.21138 -8.74553,-5.27128 -13.71731,-14.97523 -4.91188,-9.76386 -4.91188,-23.30147 v -2.57574 q 0,-13.53761 4.91188,-23.24157 4.91188,-9.76385 13.59751,-15.03513 8.74554,-5.27129 20.06682,-5.27129 11.20147,0 19.88711,5.27129 8.74554,5.27128 13.71732,15.03513 4.97178,9.70396 4.97178,23.24157 z m -22.82226,-2.69554 q 0,-8.26633 -1.85693,-13.83712 -1.79703,-5.57079 -5.33119,-8.38613 -3.53415,-2.81535 -8.56583,-2.81535 -5.27129,0 -8.74554,2.81535 -3.47425,2.81534 -5.21138,8.38613 -1.73713,5.57079 -1.73713,13.83712 v 2.69554 q 0,8.08663 1.73713,13.71732 1.79703,5.63068 5.27128,8.56583 3.53416,2.87525 8.80544,2.87525 5.03168,0 8.50593,-2.87525 3.53416,-2.93515 5.33119,-8.56583 1.79703,-5.63069 1.79703,-13.71732 z" />
    <path
       inkscape:connector-curvature="0"
       id="path841"
       style="font-style:normal;font-variant:normal;font-weight:900;font-stretch:normal;font-size:medium;line-height:1.25;font-family:Heebo;-inkscape-font-specification:'Heebo Heavy';letter-spacing:0px;word-spacing:0px;fill:#ffffff;fill-opacity:1;stroke:none;stroke-width:1.91683018"
       d="m -170.39586,428.30225 h -22.40295 l -28.81236,-50.4366 v 50.4366 h -22.46285 v -69.03067 l -9.525,-18.18511 h 31.98785 l 28.81236,50.4366 v -50.4366 h 22.40295 z"
       sodipodi:nodetypes="cccccccccccc" />
    <path
       inkscape:connector-curvature="0"
       id="path843"
       style="font-style:normal;font-variant:normal;font-weight:900;font-stretch:normal;font-size:medium;line-height:1.25;font-family:Heebo;-inkscape-font-specification:'Heebo Heavy';letter-spacing:0px;word-spacing:0px;fill:#ffffff;fill-opacity:1;stroke:none;stroke-width:1.91683018"
       d="m -92.144836,428.30225 h -46.063824 v -18.09009 h 46.063824 z m -38.097004,0 h -22.52275 v -69.09527 l -9.525,-18.12051 h 32.04775 z m 32.166811,-36.00047 H -138.20866 V 374.8706 h 40.133631 z m 6.109896,-33.06532 h -46.243527 v -18.14999 h 46.243527 z"
       sodipodi:nodetypes="ccccccccccccccccccccc" />
    <path
       inkscape:connector-curvature="0"
       id="path845"
       style="font-style:normal;font-variant:normal;font-weight:900;font-stretch:normal;font-size:medium;line-height:1.25;font-family:Heebo;-inkscape-font-specification:'Heebo Heavy';letter-spacing:0px;word-spacing:0px;fill:#ffffff;fill-opacity:1;stroke:none;stroke-width:1.91683018"
       d="m -46.420039,377.14684 14.915335,-36.06037 h 24.1999807 l -27.6742347,56.18709 v 31.02869 h -22.82226 v -31.02869 l -27.734136,-56.18709 h 24.199981 z" />
    <path
       inkscape:connector-curvature="0"
       id="path847"
       style="font-style:normal;font-variant:normal;font-weight:900;font-stretch:normal;font-size:medium;line-height:1.25;font-family:Heebo;-inkscape-font-specification:'Heebo Heavy';letter-spacing:0px;word-spacing:0px;fill:#ffffff;fill-opacity:1;stroke:none;stroke-width:1.91683018"
       d="M 23.165734,399.9092 V 381.75921 H 44.43057 c 2.715509,0 4.911877,-0.43927 6.589103,-1.31782 1.677227,-0.87855 2.91518,-2.07656 3.713859,-3.59405 0.798679,-1.55743 1.198019,-3.33449 1.198019,-5.33119 0,-2.15643 -0.39934,-4.1731 -1.198019,-6.04999 -0.798679,-1.8769 -2.036632,-3.37442 -3.713859,-4.49257 -1.677226,-1.15809 -3.873594,-1.73713 -6.589103,-1.73713 H 31.551867 v 69.06579 H 9.0291112 V 359.2571 L -0.49588863,341.08647 H 44.43057 c 7.068311,0 13.15824,1.31782 18.269787,3.95347 5.151481,2.63564 9.104944,6.22969 11.860387,10.78216 2.795377,4.55247 4.193066,9.74389 4.193066,15.57425 0,5.67062 -1.397689,10.6424 -4.193066,14.91533 -2.755443,4.27294 -6.708906,7.60743 -11.860387,10.00346 -5.111547,2.39604 -11.201476,3.59406 -18.269787,3.59406 z"
       sodipodi:nodetypes="ccsscsccscccccsccsccsc" />
    <path
       inkscape:connector-curvature="0"
       id="path849"
       style="font-style:normal;font-variant:normal;font-weight:900;font-stretch:normal;font-size:medium;line-height:1.25;font-family:Heebo;-inkscape-font-specification:'Heebo Heavy';letter-spacing:0px;word-spacing:0px;fill:#ffffff;fill-opacity:1;stroke:none;stroke-width:1.91683018"
       d="M 113.31666,428.30225 H 90.9137 v -69.05351 l -9.525,-18.16227 h 31.92796 z"
       sodipodi:nodetypes="cccccc" />
    <path
       inkscape:connector-curvature="0"
       id="path851"
       style="font-style:normal;font-variant:normal;font-weight:900;font-stretch:normal;font-size:medium;line-height:1.25;font-family:Heebo;-inkscape-font-specification:'Heebo Heavy';letter-spacing:0px;word-spacing:0px;fill:#ffffff;fill-opacity:1;stroke:none;stroke-width:1.91683018"
       d="m 198.67548,398.29187 q -0.3594,9.22475 -4.91188,16.29306 -4.55247,7.00841 -12.6391,10.96187 -8.02672,3.95346 -18.92869,3.95346 -11.80049,0 -20.18662,-5.15148 -8.38613,-5.21138 -12.8188,-14.85543 -4.37277,-9.64405 -4.37277,-23.00196 v -3.53416 q 0,-13.41781 4.61237,-23.06186 4.61237,-9.64405 12.8787,-14.85543 8.32623,-5.21139 19.52771,-5.21139 11.62078,0 19.52771,4.19307 7.96682,4.19307 12.27969,11.44108 4.37277,7.24801 5.15148,16.35296 h -22.40295 q -0.1198,-6.82871 -3.29455,-10.18316 -3.17475,-3.35446 -11.26138,-3.35446 -4.85198,0 -8.02673,2.33614 -3.11484,2.27624 -4.67227,7.66732 -1.49752,5.33118 -1.49752,14.55593 v 3.65396 q 0,9.28464 1.31782,14.67573 1.37772,5.33118 4.55247,7.60742 3.23465,2.27623 8.68564,2.27623 4.49257,0 7.60742,-1.31782 3.11485,-1.31782 4.73217,-4.13316 1.67723,-2.81535 1.73713,-7.30792 z" />
    <path
       inkscape:connector-curvature="0"
       id="path853"
       style="font-style:normal;font-variant:normal;font-weight:900;font-stretch:normal;font-size:medium;line-height:1.25;font-family:Heebo;-inkscape-font-specification:'Heebo Heavy';letter-spacing:0px;word-spacing:0px;fill:#ffffff;fill-opacity:1;stroke:none;stroke-width:1.91683018"
       d="m 230.42303,428.30225 h -22.52275 v -69.06463 l -9.525,-18.15115 h 32.04775 z m 18.44949,-42.11037 -19.94701,22.04355 -4.19307,-21.38464 12.3995,-19.82721 17.37127,-25.93711 h 27.73414 z m -14.43613,3.83366 17.49108,-13.1183 30.07027,51.39501 h -26.59602 z"
       sodipodi:nodetypes="cccccccccccccccccc" />
    <path
       inkscape:connector-curvature="0"
       id="path855"
       style="font-style:normal;font-variant:normal;font-weight:900;font-stretch:normal;font-size:medium;line-height:1.25;font-family:Heebo;-inkscape-font-specification:'Heebo Heavy';letter-spacing:0px;word-spacing:0px;fill:#ffffff;fill-opacity:1;stroke:none;stroke-width:1.91683018"
       d="m 330.8769,404.82108 q 0,-2.33614 -1.01831,-4.13317 -0.95842,-1.79703 -4.07327,-3.53415 -3.05495,-1.79703 -9.34455,-3.89357 -5.63068,-1.91683 -10.96187,-4.37276 -5.33118,-2.45594 -9.58415,-5.7505 -4.25297,-3.35445 -6.76881,-7.84702 -2.51584,-4.55247 -2.51584,-10.60247 0,-7.66732 4.43267,-13.1782 4.43267,-5.57079 12.09999,-8.56584 7.66733,-3.05495 17.43118,-3.05495 9.64405,0 17.01187,3.29456 7.42771,3.23465 11.62078,9.34454 4.25297,6.1099 4.25297,14.61583 H 331.0566 q 0,-2.81534 -1.19801,-4.97178 -1.13812,-2.15643 -3.59406,-3.35445 -2.39604,-1.19802 -6.1698,-1.19802 -3.65396,0 -6.1698,1.01832 -2.45593,1.01832 -3.71385,2.69554 -1.19802,1.61733 -1.19802,3.65396 0,2.33614 1.91683,4.07326 1.91683,1.73713 5.33118,3.23465 3.41436,1.49753 7.90693,2.99505 9.34454,2.99505 15.81385,7.00841 6.5292,3.95346 9.94355,9.46435 3.41436,5.45099 3.41436,12.9386 0,7.96683 -4.01337,13.53762 -3.95346,5.51088 -11.26138,8.38613 -7.30791,2.87524 -17.19157,2.87524 -6.8287,0 -13.41781,-1.73712 -6.5292,-1.73713 -11.86038,-5.39109 -5.27129,-3.65395 -8.44604,-9.34454 -3.11485,-5.75049 -3.11485,-13.71732 h 22.52276 q 0,3.59406 0.83861,5.99009 0.89852,2.39604 2.69554,3.89357 1.79703,1.43762 4.49258,2.09653 2.69554,0.59901 6.28959,0.59901 3.71386,0 5.8703,-1.01832 2.21633,-1.01831 3.17475,-2.63564 0.95841,-1.61733 0.95841,-3.41435 z" />
  </g>
</svg>
