<?xml version="1.0" encoding="UTF-8" standalone="no"?>
<!-- Created with Inkscape (http://www.inkscape.org/) -->

<svg
   xmlns:dc="http://purl.org/dc/elements/1.1/"
   xmlns:cc="http://creativecommons.org/ns#"
   xmlns:rdf="http://www.w3.org/1999/02/22-rdf-syntax-ns#"
   xmlns:svg="http://www.w3.org/2000/svg"
   xmlns="http://www.w3.org/2000/svg"
   xmlns:sodipodi="http://sodipodi.sourceforge.net/DTD/sodipodi-0.dtd"
   xmlns:inkscape="http://www.inkscape.org/namespaces/inkscape"
   width="116.369mm"
   height="116.36901mm"
   viewBox="0 0 116.369 116.36901"
   version="1.1"
   id="svg1382"
   inkscape:version="0.92.3 (2405546, 2018-03-11)"
   sodipodi:docname="CHI.svg">
  <defs
     id="defs1376" />
  <sodipodi:namedview
     id="base"
     pagecolor="#ffffff"
     bordercolor="#666666"
     borderopacity="1.0"
     inkscape:pageopacity="0.0"
     inkscape:pageshadow="2"
     inkscape:zoom="0.35"
     inkscape:cx="18.121033"
     inkscape:cy="179.54962"
     inkscape:document-units="mm"
     inkscape:current-layer="layer1"
     showgrid="false"
     inkscape:pagecheckerboard="true"
     fit-margin-top="0"
     fit-margin-left="0"
     fit-margin-right="0"
     fit-margin-bottom="0"
     inkscape:window-width="1920"
     inkscape:window-height="991"
     inkscape:window-x="-9"
     inkscape:window-y="-9"
     inkscape:window-maximized="1" />
  <metadata
     id="metadata1379">
    <rdf:RDF>
      <cc:Work
         rdf:about="">
        <dc:format>image/svg+xml</dc:format>
        <dc:type
           rdf:resource="http://purl.org/dc/dcmitype/StillImage" />
        <dc:title></dc:title>
      </cc:Work>
    </rdf:RDF>
  </metadata>
  <g
     inkscape:label="Layer 1"
     inkscape:groupmode="layer"
     id="layer1"
     transform="translate(47.505834,-79.970161)">
    <circle
       style="opacity:1;fill:#ffffff;fill-opacity:1;stroke:none;stroke-width:10;stroke-linecap:round;stroke-linejoin:round;stroke-miterlimit:4;stroke-dasharray:none;stroke-dashoffset:0;stroke-opacity:1"
       id="path7669-8-8-9-0"
       cx="10.678668"
       cy="138.15466"
       r="58.184502"
       inkscape:export-xdpi="65.480003"
       inkscape:export-ydpi="65.480003" />
    <path
       style="opacity:1;fill:#ce1141;fill-opacity:1;stroke:#000000;stroke-width:0;stroke-linecap:round;stroke-linejoin:round;stroke-miterlimit:4;stroke-dasharray:none;stroke-dashoffset:0;stroke-opacity:1"
       d="m 3.4538048,96.521557 a 42.257382,42.257382 0 0 0 -35.0325018,41.633113 42.257382,42.257382 0 0 0 42.257402,42.25738 42.257382,42.257382 0 0 0 42.2573,-42.25738 42.257382,42.257382 0 0 0 -34.9875,-41.585053 27.423568,35.172076 0 0 1 0.834599,0.27337 27.423568,35.172076 0 0 1 2.574999,1.20509 27.423568,35.172076 0 0 1 2.468102,1.52963 27.423568,35.172076 0 0 1 2.3368,1.837613 27.423568,35.172076 0 0 1 2.182299,2.12752 27.423568,35.172076 0 0 1 2.0061,2.39624 27.423568,35.172076 0 0 1 1.8092,2.64169 27.423568,35.172076 0 0 1 1.594199,2.85978 27.423568,35.172076 0 0 1 1.363702,3.04943 27.423568,35.172076 0 0 1 1.119799,3.2091 27.423568,35.172076 0 0 1 0.8646,3.33623 27.423568,35.172076 0 0 1 0.600501,3.43029 27.423568,35.172076 0 0 1 0.3302,3.49022 27.423568,35.172076 0 0 1 0.069,2.48822 27.423568,35.172076 0 0 1 -0.136898,3.51141 27.423568,35.172076 0 0 1 -0.4098,3.47627 27.423568,35.172076 0 0 1 -0.678,3.40652 27.423568,35.172076 0 0 1 -0.940001,3.30264 27.423568,35.172076 0 0 1 -1.192699,3.1657 27.423568,35.172076 0 0 1 -1.432502,2.99723 27.423568,35.172076 0 0 1 -1.6588,2.7988 27.423568,35.172076 0 0 1 -1.868599,2.57245 27.423568,35.172076 0 0 1 -2.059299,2.32027 27.423568,35.172076 0 0 1 -2.2298,2.04484 27.423568,35.172076 0 0 1 -2.378202,1.74924 27.423568,35.172076 0 0 1 -2.501699,1.43609 27.423568,35.172076 0 0 1 -2.601299,1.10898 27.423568,35.172076 0 0 1 -2.674802,0.76998 27.423568,35.172076 0 0 1 -2.721298,0.42323 27.423568,35.172076 0 0 1 -1.939901,0.0884 27.423568,35.172076 0 0 1 -2.7379002,-0.1757 27.423568,35.172076 0 0 1 -2.7104,-0.52555 27.423568,35.172076 0 0 1 -2.6562,-0.86971 27.423568,35.172076 0 0 1 -2.5749990381,-1.20561 27.423568,35.172076 0 0 1 -2.4680009619,-1.52912 27.423568,35.172076 0 0 1 -2.3368,-1.8376 27.423568,35.172076 0 0 1 -2.1824,-2.12752 27.423568,35.172076 0 0 1 -2.0055,-2.39675 27.423568,35.172076 0 0 1 -1.8091988,-2.64119 27.423568,35.172076 0 0 1 -1.594702,-2.85977 27.423568,35.172076 0 0 1 -1.3638,-3.04994 27.423568,35.172076 0 0 1 -1.119799,-3.20859 27.423568,35.172076 0 0 1 -0.8646,-3.33675 27.423568,35.172076 0 0 1 -0.600401,-3.43028 27.423568,35.172076 0 0 1 -0.3303,-3.49023 27.423568,35.172076 0 0 1 -0.069,-2.4877 27.423568,35.172076 0 0 1 0.136898,-3.51141 27.423568,35.172076 0 0 1 0.4099,-3.47628 27.423568,35.172076 0 0 1 0.678,-3.40651 27.423568,35.172076 0 0 1 0.939901,-3.30265 27.423568,35.172076 0 0 1 1.192699,-3.1657 27.423568,35.172076 0 0 1 1.432502,-2.99722 27.423568,35.172076 0 0 1 1.6593,-2.79879 27.423568,35.172076 0 0 1 1.8680988,-2.57246 27.423568,35.172076 0 0 1 2.0599,-2.32027 27.423568,35.172076 0 0 1 2.2293,-2.04484 27.423568,35.172076 0 0 1 2.378101,-1.749763 27.423568,35.172076 0 0 1 2.50219896,-1.43609 27.423568,35.172076 0 0 1 2.60139904,-1.10846 27.423568,35.172076 0 0 1 0.110602,-0.032 z"
       id="path8198"
       inkscape:connector-curvature="0"
       inkscape:export-xdpi="176.78"
       inkscape:export-ydpi="176.78" />
    <path
       style="opacity:1;fill:#ce1141;fill-opacity:1;stroke:none;stroke-width:10;stroke-linecap:round;stroke-linejoin:round;stroke-miterlimit:4;stroke-dasharray:none;stroke-dashoffset:0;stroke-opacity:1"
       d="m -13.320895,146.81402 -12.929502,36.26239 a 58.184502,58.184502 0 0 0 36.931102,13.26276 58.184502,58.184502 0 0 0 36.926999,-13.27361 L 34.681805,146.81402 Z"
       id="path7669-8-8-9-0-9"
       inkscape:connector-curvature="0" />
  </g>
</svg>
