<?xml version="1.0" encoding="UTF-8" standalone="no"?>
<!-- Created with Inkscape (http://www.inkscape.org/) -->

<svg
   xmlns:dc="http://purl.org/dc/elements/1.1/"
   xmlns:cc="http://creativecommons.org/ns#"
   xmlns:rdf="http://www.w3.org/1999/02/22-rdf-syntax-ns#"
   xmlns:svg="http://www.w3.org/2000/svg"
   xmlns="http://www.w3.org/2000/svg"
   xmlns:sodipodi="http://sodipodi.sourceforge.net/DTD/sodipodi-0.dtd"
   xmlns:inkscape="http://www.inkscape.org/namespaces/inkscape"
   width="116.369mm"
   height="116.369mm"
   viewBox="0 0 116.369 116.369"
   version="1.1"
   id="svg1382"
   inkscape:version="0.92.3 (2405546, 2018-03-11)"
   sodipodi:docname="BOS.svg">
  <defs
     id="defs1376" />
  <sodipodi:namedview
     id="base"
     pagecolor="#ffffff"
     bordercolor="#666666"
     borderopacity="1.0"
     inkscape:pageopacity="0.0"
     inkscape:pageshadow="2"
     inkscape:zoom="0.35"
     inkscape:cx="6.8726282"
     inkscape:cy="191.15831"
     inkscape:document-units="mm"
     inkscape:current-layer="layer1"
     showgrid="false"
     inkscape:pagecheckerboard="true"
     fit-margin-top="0"
     fit-margin-left="0"
     fit-margin-right="0"
     fit-margin-bottom="0"
     inkscape:window-width="1920"
     inkscape:window-height="991"
     inkscape:window-x="-9"
     inkscape:window-y="-9"
     inkscape:window-maximized="1" />
  <metadata
     id="metadata1379">
    <rdf:RDF>
      <cc:Work
         rdf:about="">
        <dc:format>image/svg+xml</dc:format>
        <dc:type
           rdf:resource="http://purl.org/dc/dcmitype/StillImage" />
        <dc:title></dc:title>
      </cc:Work>
    </rdf:RDF>
  </metadata>
  <g
     inkscape:label="Layer 1"
     inkscape:groupmode="layer"
     id="layer1"
     transform="translate(44.529693,-83.041634)">
    <circle
       style="opacity:1;fill:#007a33;fill-opacity:1;stroke:none;stroke-width:10;stroke-linecap:round;stroke-linejoin:round;stroke-miterlimit:4;stroke-dasharray:none;stroke-dashoffset:0;stroke-opacity:1"
       id="path7669-8-8"
       cx="13.654809"
       cy="141.22614"
       r="58.184502" />
    <g
       id="g7917"
       transform="matrix(0.84849864,0,0,0.84849864,2313.8365,177.63969)"
       style="fill:#ffffff;fill-opacity:1;stroke:#ffffff;stroke-width:1;stroke-miterlimit:4;stroke-dasharray:none;stroke-opacity:1">
      <path
         inkscape:connector-curvature="0"
         id="path7784-8-87"
         d="m -2723.1655,-88.281585 a 12.463562,12.463562 0 0 0 -8.9952,3.649316 12.463562,12.463562 0 0 0 0,17.625979 l 21.2767,21.276664 21.2766,-21.276664 0.015,-0.0151 v -2.82e-4 a 12.463562,12.463562 0 0 0 -0.014,-17.610587 12.463562,12.463562 0 0 0 -17.626,0 12.463562,12.463562 0 0 0 -3.6427,8.817377 l -0.01,-0.0032 -0.01,0.0032 a 12.463562,12.463562 0 0 0 -3.6427,-8.817361 12.463562,12.463562 0 0 0 -8.6311,-3.649316 z"
         style="opacity:1;fill:#ffffff;fill-opacity:1;stroke:#ffffff;stroke-width:1;stroke-linecap:round;stroke-linejoin:round;stroke-miterlimit:4;stroke-dasharray:none;stroke-dashoffset:0;stroke-opacity:1" />
      <path
         inkscape:connector-curvature="0"
         id="path7784-8-8-5"
         d="m -2665.5178,-55.196712 a 12.463562,12.463562 0 0 0 -3.6493,-8.995221 12.463562,12.463562 0 0 0 -17.626,0 l -21.2766,21.27672 21.2766,21.276613 0.015,0.01489 h 4e-4 a 12.463562,12.463562 0 0 0 17.6106,-0.01436 12.463562,12.463562 0 0 0 0,-17.625968 12.463562,12.463562 0 0 0 -8.8174,-3.642721 l 0.01,-0.008 -0.01,-0.0074 a 12.463562,12.463562 0 0 0 8.8173,-3.642721 12.463562,12.463562 0 0 0 3.6493,-8.631066 z"
         style="opacity:1;fill:#ffffff;fill-opacity:1;stroke:#ffffff;stroke-width:1;stroke-linecap:round;stroke-linejoin:round;stroke-miterlimit:4;stroke-dasharray:none;stroke-dashoffset:0;stroke-opacity:1" />
      <path
         inkscape:connector-curvature="0"
         id="path7784-8-8-9-61"
         d="m -2698.6026,2.4510333 a 12.463562,12.463562 0 0 0 8.9952,-3.649316 12.463562,12.463562 0 0 0 0,-17.6259673 l -21.2767,-21.276667 -21.2766,21.276667 -0.015,0.01489 v 2.82e-4 a 12.463562,12.463562 0 0 0 0.014,17.6105973 12.463562,12.463562 0 0 0 17.6259,0 12.463562,12.463562 0 0 0 3.6428,-8.8173723 l 0.01,0.0053 0.01,-0.0053 a 12.463562,12.463562 0 0 0 3.6427,8.8173193 12.463562,12.463562 0 0 0 8.6311,3.649315 z"
         style="opacity:1;fill:#ffffff;fill-opacity:1;stroke:#ffffff;stroke-width:1;stroke-linecap:round;stroke-linejoin:round;stroke-miterlimit:4;stroke-dasharray:none;stroke-dashoffset:0;stroke-opacity:1" />
      <path
         inkscape:connector-curvature="0"
         id="path7784-8-8-9-6-3"
         d="m -2756.2504,-30.633714 a 12.463562,12.463562 0 0 0 3.6494,8.995221 12.463562,12.463562 0 0 0 17.6259,0 l 21.2766,-21.27672 -21.2766,-21.276614 -0.015,-0.01489 h -3e-4 a 12.463562,12.463562 0 0 0 -17.6106,0.01436 12.463562,12.463562 0 0 0 0,17.625968 12.463562,12.463562 0 0 0 8.8174,3.642721 l -0.01,0.008 0.01,0.0074 a 12.463562,12.463562 0 0 0 -8.8173,3.642721 12.463562,12.463562 0 0 0 -3.6493,8.631066 z"
         style="opacity:1;fill:#ffffff;fill-opacity:1;stroke:#ffffff;stroke-width:1;stroke-linecap:round;stroke-linejoin:round;stroke-miterlimit:4;stroke-dasharray:none;stroke-dashoffset:0;stroke-opacity:1" />
    </g>
  </g>
</svg>
